<?xml version="1.0" encoding="UTF-8" standalone="no"?>
<svg width="3146px" height="1402px" viewBox="0 0 3146 1402" version="1.1" xmlns="http://www.w3.org/2000/svg" xmlns:xlink="http://www.w3.org/1999/xlink" xmlns:sketch="http://www.bohemiancoding.com/sketch/ns">
    <!-- Generator: Sketch 3.4.2 (15855) - http://www.bohemiancoding.com/sketch -->
    <title>a module</title>
    <desc>Created with Sketch.</desc>
    <defs></defs>
    <g id="Page-1" stroke="none" stroke-width="1" fill="none" fill-rule="evenodd" sketch:type="MSPage">
        <g id="a-module" sketch:type="MSLayerGroup" transform="translate(0.000000, -16.000000)">
            <ellipse id="Oval-1" stroke="#979797" fill="#D8D8D8" sketch:type="MSShapeGroup" cx="598" cy="722.696915" rx="424" ry="420.221306"></ellipse>
            <text id="💰" sketch:type="MSTextLayer" font-family="Apple Color Emoji" font-size="144" font-weight="normal" sketch:alignment="middle" fill="#2E2E2E">
                <tspan x="1378" y="1026.30775">💰</tspan>
            </text>
            <text id="📦" sketch:type="MSTextLayer" font-family="Apple Color Emoji" font-size="288" font-weight="normal" sketch:alignment="middle" fill="#2E2E2E">
                <tspan x="52" y="288">📦</tspan>
            </text>
            <text id="brfs" sketch:type="MSTextLayer" font-family="Lato" font-size="144" font-weight="206" sketch:alignment="middle" fill="#F4F4F4">
                <tspan x="1495.064" y="1347.71593">brfs</tspan>
            </text>
            <ellipse id="Oval-1" stroke="#979797" fill="#D8D8D8" sketch:type="MSShapeGroup" cx="1590" cy="722.696915" rx="424" ry="420.221306"></ellipse>
            <ellipse id="Oval-1" stroke="#979797" fill="#D8D8D8" sketch:type="MSShapeGroup" cx="2557" cy="723.743544" rx="424" ry="420.221306"></ellipse>
            <g id="html5" transform="translate(1394.000000, 433.304161)" sketch:type="MSShapeGroup">
                <g id="Slice-1">
                    <g id="Page-1">
                        <g id="Group">
                            <path d="M36.0205906,531.335444 L0.411731544,113.685256 L391.688242,113.685256 L356.04255,531.268041 L195.810577,577.719623 L36.0205906,531.335444 L36.0205906,531.335444 Z" id="Shape" fill="#E44F26"></path>
                            <path d="M196.049987,542.214818 L325.52443,504.678297 L355.987302,147.833751 L196.049987,147.833751 L196.049987,542.214818 L196.049987,542.214818 Z" id="Shape" fill="#F1662A"></path>
                            <path d="M196.049987,302.735174 L131.231866,302.735174 L126.754121,250.281985 L196.049987,250.281985 L196.049987,199.05718 L195.880295,199.05718 L73.2211275,199.05718 L74.3944966,212.800488 L86.4333691,353.955852 L196.049987,353.955852 L196.049987,302.735174 L196.049987,302.735174 Z" id="Shape" fill="#EBEBEB"></path>
                            <path d="M196.049987,435.763678 L195.83557,435.826954 L141.281799,420.421959 L137.793262,379.570318 L111.285906,379.570318 L88.622255,379.570318 L95.4848859,459.995697 L195.823732,489.124741 L196.049987,489.058714 L196.049987,435.763678 L196.049987,435.763678 Z" id="Shape" fill="#EBEBEB"></path>
                            <path d="M36.8164295,0.185701783 L61.709745,0.185701783 L61.709745,25.9033354 L84.4812617,25.9033354 L84.4812617,0.185701783 L109.375893,0.185701783 L109.375893,78.0676541 L84.4825772,78.0676541 L84.4825772,51.9896214 L61.7123758,51.9896214 L61.7123758,78.0676541 L36.8164295,78.0676541 L36.8164295,0.185701783 L36.8164295,0.185701783 L36.8164295,0.185701783 Z" id="Shape" fill="#010101"></path>
                            <path d="M142.109208,26.0120053 L120.19404,26.0120053 L120.19404,0.185701783 L188.928215,0.185701783 L188.928215,26.0120053 L167.003839,26.0120053 L167.003839,78.0676541 L142.110523,78.0676541 L142.110523,26.0120053 L142.109208,26.0120053 L142.109208,26.0120053 L142.109208,26.0120053 Z" id="Shape" fill="#010101"></path>
                            <path d="M199.837128,0.185701783 L225.794631,0.185701783 L241.760081,27.5512668 L257.712376,0.185701783 L283.677772,0.185701783 L283.677772,78.0676541 L258.88706,78.0676541 L258.88706,39.4650678 L241.758765,67.1552671 L241.331248,67.1552671 L224.193745,39.4650678 L224.193745,78.0676541 L199.835812,78.0676541 L199.835812,0.185701783 L199.837128,0.185701783 L199.837128,0.185701783 Z" id="Shape" fill="#010101"></path>
                            <path d="M296.06655,0.185701783 L320.966443,0.185701783 L320.966443,52.3238846 L355.972832,52.3238846 L355.972832,78.0662785 L296.065235,78.0662785 L296.065235,0.185701783 L296.06655,0.185701783 L296.06655,0.185701783 Z" id="Shape" fill="#010101"></path>
                            <path d="M195.880295,302.735174 L195.880295,353.955852 L256.198309,353.955852 L250.512993,420.38757 L195.880295,435.807696 L195.880295,489.099981 L296.300698,459.995697 L297.036027,451.343369 L308.547409,316.489486 L309.741826,302.735174 L296.542738,302.735174 L195.880295,302.735174 L195.880295,302.735174 Z" id="Shape" fill="#FFFFFF"></path>
                            <path d="M195.880295,199.05718 L195.880295,230.871335 L195.880295,250.155433 L195.880295,250.281985 L314.041987,250.281985 L314.199839,250.281985 L315.18247,238.768475 L317.41345,212.800488 L318.585503,199.05718 L195.880295,199.05718 L195.880295,199.05718 Z" id="Shape" fill="#FFFFFF"></path>
                        </g>
                    </g>
                </g>
            </g>
            <g id="JavaScript_logo" transform="translate(392.000000, 519.127690)" sketch:type="MSShapeGroup">
                <g id="Group">
                    <rect id="Rectangle-path" fill="#F0DB4F" x="0" y="0" width="411" height="430.164275"></rect>
                    <path d="M377.362072,327.570914 C374.353802,307.943646 362.12538,291.46492 325.908935,276.090227 C313.328897,270.038486 299.303327,265.704131 295.123004,255.726937 C293.638403,249.920537 293.443061,246.649326 294.380703,243.132774 C297.076426,231.724425 310.086217,228.166983 320.400285,231.438194 C327.04192,233.768932 333.331939,239.12554 337.121578,247.67158 C354.85865,235.649878 354.819582,235.731659 367.204278,227.47185 C362.672338,220.111625 360.250095,216.717743 357.280894,213.569203 C346.615209,201.09771 332.081749,194.677958 308.836027,195.168639 C304.811977,195.700211 300.748859,196.272673 296.72481,196.804245 C285.121483,199.871006 274.065114,206.249867 267.579753,214.795907 C248.123669,237.898836 253.671388,278.339185 277.346863,294.981472 C300.670722,313.300255 334.933745,317.471049 339.309411,334.604018 C343.567871,355.58066 324.580608,362.368423 305.710551,359.955905 C291.802186,356.930034 284.066635,349.528919 275.705989,336.076063 C260.313023,345.399015 260.313023,345.399015 244.490304,354.926417 C248.240875,363.513347 252.186787,367.39791 258.476806,374.839916 C288.246958,406.447994 362.750475,404.894169 376.111882,357.052705 C376.65884,355.417099 380.253137,344.458541 377.362072,327.570914 L377.362072,327.570914 Z M223.432414,197.703828 L184.989068,197.703828 C184.989068,232.460447 184.832795,266.971726 184.832795,301.728345 C184.832795,323.849911 185.926711,344.13142 182.488688,350.346722 C176.862833,362.572874 162.290304,361.059938 155.648669,358.68831 C148.889829,355.212648 145.451806,350.264941 141.466825,343.272727 C140.372909,341.269111 139.552471,339.715285 139.278992,339.592615 C128.847719,346.257708 118.455513,352.963691 108.02424,359.628784 C113.220342,370.791792 120.877757,380.482755 130.683935,386.779837 C145.334601,395.980118 165.025095,398.801538 185.614163,393.853831 C199.014639,389.764817 210.578897,381.300558 216.634506,368.420164 C225.385837,351.532536 223.510551,331.087466 223.432414,308.475218 C223.627757,271.592312 223.432414,234.709405 223.432414,197.703828 L223.432414,197.703828 Z" id="Shape" fill="#323330"></path>
                </g>
            </g>
            <g id="logo-b6e1ef6e" transform="translate(2340.000000, 519.127690)" fill="#CF649A" sketch:type="MSShapeGroup">
                <path d="M441.6,230.886227 C423.7,230.99089 408.2,235.491392 395.2,242.189813 C390.4,232.246844 385.6,223.559828 384.8,217.070732 C383.9,209.535007 382.8,204.929842 383.9,195.928838 C385,186.927834 390,174.158967 390,173.112339 C389.9,172.170373 388.9,167.565208 378.6,167.460545 C368.3,167.355882 359.4,169.553802 358.4,172.379699 C357.4,175.205595 355.4,181.694692 354.1,188.393113 C352.3,198.23142 333.5,233.084146 322.8,251.400143 C319.3,244.28307 316.3,238.0033 315.7,232.979484 C314.8,225.443759 313.7,220.838594 314.8,211.83759 C315.9,202.836585 320.9,190.067719 320.9,189.02109 C320.8,188.079125 319.8,183.47396 309.5,183.369297 C299.2,183.264634 290.3,185.462554 289.3,188.288451 C288.3,191.114347 287.2,197.812769 285,204.301865 C282.9,210.790961 257.9,268.983501 251.4,284.159613 C248.1,291.904663 245.2,298.07977 243.1,302.266284 C241,306.452798 243,302.580273 242.8,302.998924 C241,306.557461 240,308.546055 240,308.546055 L240,308.650717 C238.6,311.267288 237.1,313.779197 236.4,313.779197 C235.9,313.779197 234.9,306.766786 236.6,297.137805 C240.3,276.937877 249.3,245.434362 249.2,244.28307 C249.2,243.759756 250.9,238.212626 243.4,235.386729 C236.1,232.560832 233.5,237.27066 232.9,237.27066 C232.3,237.27066 231.8,238.945265 231.8,238.945265 C231.8,238.945265 239.9,203.464562 216.3,203.464562 C201.5,203.464562 181.1,220.31528 171,235.700717 C164.6,239.363917 151,247.108967 136.6,255.377331 C131.1,258.517217 125.4,261.866428 120,264.90165 L118.9,263.645696 C90.3,231.723529 37.4,209.116356 39.6,166.204591 C40.4,150.609828 45.6,109.477331 141.2,59.6578192 C219.5,18.8393113 282.2,30.0382353 293.1,54.9479914 C308.6,90.5333572 259.6,156.680273 178.2,166.204591 C147.2,169.867791 130.9,157.30825 126.8,152.598422 C122.5,147.679268 121.9,147.469943 120.3,148.411908 C117.7,149.877188 119.3,154.273027 120.3,156.889598 C122.7,163.483357 132.7,175.205595 149.7,181.066714 C164.6,186.195194 201,189.02109 245,171.228407 C294.3,151.237805 332.8,95.7664993 321.5,49.4008608 C310,2.19791966 235.2,-13.2921808 164.5,12.9781923 C122.4,28.6776184 76.8,53.1687231 44,85.3002152 C5,123.397489 -1.2,156.680273 1.4,170.495768 C10.5,219.791966 75.4,251.923458 101.4,275.681923 C100.1,276.414562 98.9,277.147202 97.8,277.775179 C84.8,284.473601 35.3,311.581277 22.9,340.258895 C8.9,372.704376 25.1,396.044189 35.9,399.184075 C69.3,408.917719 103.5,391.439024 122,362.656743 C140.4,333.874462 138.2,296.509828 129.7,279.449785 L129.4,278.821808 L139.6,272.542037 C146.2,268.460187 152.7,264.692324 158.4,261.447776 C155.2,270.553443 152.9,281.333716 151.7,297.033142 C150.3,315.453802 157.5,339.31693 167,348.736585 C171.2,352.818436 176.2,352.923099 179.3,352.923099 C190.3,352.923099 195.3,343.39878 200.8,331.990531 C207.6,318.070373 213.6,301.952296 213.6,301.952296 C213.6,301.952296 206.1,345.5967 226.6,345.5967 C234.1,345.5967 241.6,335.444405 245,330.211263 L245,330.315925 C1.1,-2.84217094e-14 245.2,330.001937 245.6,329.269297 C246.4,328.013343 246.8,327.280703 246.8,327.280703 L246.8,327.071377 C249.8,321.62891 256.5,309.174032 266.5,288.555452 C279.4,261.97109 291.8,228.688307 291.8,228.688307 C291.8,228.688307 293,236.852009 296.7,250.248852 C298.9,258.203228 303.7,266.890244 307.4,275.367934 C304.4,279.763773 302.6,282.275681 302.6,282.275681 L302.7,282.380344 C300.3,285.729555 297.6,289.288092 294.8,292.846628 C284.6,305.615495 272.4,320.16363 270.8,324.350143 C268.9,329.269297 269.3,332.932496 273,335.863056 C275.7,337.956313 280.5,338.374964 285.6,337.956313 C294.8,337.328336 301.2,334.92109 304.4,333.455811 C309.4,331.571879 315.1,328.745983 320.6,324.559469 C330.6,316.814419 336.7,305.824821 336.1,291.172023 C335.8,283.112984 333.3,275.158608 330.2,267.622884 C331.1,266.262267 332,264.90165 332.9,263.43637 C348.7,239.259254 360.9,212.674892 360.9,212.674892 C360.9,212.674892 362.1,220.838594 365.8,234.235438 C367.7,241.038522 371.5,248.469584 374.9,255.795983 C360.1,268.460187 350.8,283.112984 347.6,292.741966 C341.7,310.534648 346.3,318.593687 355,320.477618 C358.9,321.314921 364.5,319.43099 368.7,317.547059 C373.9,315.767791 380.2,312.732568 386,308.232066 C396,300.487016 405.6,289.706743 405.1,275.158608 C404.8,268.460187 403.1,261.866428 400.8,255.586657 C413.4,250.144189 429.7,247.004304 450.4,249.620875 C494.9,255.063343 503.7,284.159613 502,296.300502 C500.3,308.441392 491,315.139813 487.9,317.23307 C484.8,319.221664 483.8,319.954304 484.1,321.419584 C484.5,323.617504 485.9,323.512841 488.6,323.094189 C492.3,322.466212 512,313.15122 512.8,290.753372 C514,261.97109 487.9,230.572238 441.6,230.886227 L441.6,230.886227 Z M98.4,351.981133 C83.7,368.831851 63,375.216284 54.2,369.773816 C44.7,364.01736 48.4,339.212267 66.5,321.314921 C77.5,310.429986 91.8,300.382353 101.2,294.207245 C103.3,292.846628 106.5,290.858034 110.3,288.450789 C110.9,288.032138 111.3,287.822812 111.3,287.822812 C112,287.404161 112.8,286.880846 113.6,286.357532 C120.3,311.895265 113.9,334.293113 98.4,351.981133 L98.4,351.981133 Z M205.9,275.472597 C200.8,288.555452 190,322.152224 183.5,320.268293 C177.9,318.69835 174.5,293.26528 182.4,268.146198 C186.4,255.481994 194.9,240.410545 199.9,234.549426 C208,225.12977 216.8,221.989885 219,225.86241 C221.6,230.886227 209.1,267.308895 205.9,275.472597 L205.9,275.472597 Z M294.6,319.849641 C292.4,321.000933 290.4,321.838235 289.5,321.210258 C288.8,320.791607 290.4,319.221664 290.4,319.221664 C290.4,319.221664 301.5,306.766786 305.9,301.01033 C308.4,297.661119 311.4,293.788594 314.6,289.392755 L314.6,290.648709 C314.6,305.720158 300.8,315.767791 294.6,319.849641 L294.6,319.849641 Z M363,303.522238 C361.4,302.266284 361.6,298.393759 367,286.252869 C369.1,281.438379 373.9,273.37934 382.2,265.738953 C383.2,268.878838 383.8,271.91406 383.7,274.739957 C383.6,293.579268 370.8,300.591679 363,303.522238 L363,303.522238 Z" id="Shape"></path>
            </g>
            <text id="npm-sass" sketch:type="MSTextLayer" font-family="Lato" font-size="144" font-weight="206" sketch:alignment="middle" fill="#F4F4F4">
                <tspan x="2270.872" y="1347.71593">npm-sass</tspan>
            </text>
            <text id="browserify" sketch:type="MSTextLayer" font-family="Lato" font-size="144" font-weight="206" sketch:alignment="middle" fill="#F4F4F4">
                <tspan x="277.348" y="1347.71593">browserify</tspan>
            </text>
            <text id="node_modules/fronten" sketch:type="MSTextLayer" font-family="Lato" font-size="144" font-weight="206" sketch:alignment="middle" fill="#F4F4F4">
                <tspan x="420.396" y="168.16571">node_modules/frontend</tspan>
            </text>
            <rect id="Rectangle-3" stroke="#E9E9E9" sketch:type="MSShapeGroup" x="0" y="16" width="3146" height="1402"></rect>
        </g>
    </g>
</svg>