<?xml version="1.0" standalone="no"?>
<!DOCTYPE svg PUBLIC "-//W3C//DTD SVG 1.1//EN" "http://www.w3.org/Graphics/SVG/1.1/DTD/svg11.dtd" >
<svg xmlns="http://www.w3.org/2000/svg">
<metadata></metadata>
<defs>
<font id="tccsansmedium_italic" horiz-adv-x="1667" >
<font-face units-per-em="2048" ascent="1638" descent="-410" />
<missing-glyph horiz-adv-x="409" />
<glyph unicode="&#xfb01;" horiz-adv-x="1193" d="M1108 1227h-221l66 309h221zM767 1536l-29 -139q-90 0 -153 -47t-79 -122l-45 -213h161l-31 -148h-162l-222 -1045q-32 -148 -162.5 -239t-311.5 -91l30 139q84 0 145.5 47t77.5 122l227 1067h-107l30 148h109l40 191q32 148 163.5 239t318.5 91zM846 0h-217l215 1015 h218z" />
<glyph unicode="&#xfb02;" horiz-adv-x="1193" d="M846 0h-217l326 1536h218zM767 1536l-29 -139q-90 0 -153 -47t-79 -122l-45 -213h161l-31 -148h-162l-222 -1045q-32 -148 -162.5 -239t-311.5 -91l30 139q84 0 145.5 47t77.5 122l227 1067h-107l30 148h109l40 191q32 148 163.5 239t318.5 91z" />
<glyph horiz-adv-x="0" />
<glyph horiz-adv-x="682" />
<glyph unicode=" "  horiz-adv-x="409" />
<glyph unicode="&#x09;" horiz-adv-x="409" />
<glyph unicode="&#xa0;" horiz-adv-x="409" />
<glyph unicode="!" horiz-adv-x="589" d="M345 1505h219l-218 -1025h-218zM22 0l48 225h225l-48 -225h-225z" />
<glyph unicode="&#x22;" horiz-adv-x="856" d="M34 1083l85 445h212l-104 -445h-193zM450 1083l85 445h212l-105 -445h-192z" />
<glyph unicode="#" horiz-adv-x="1388" d="M1198 1046h196l-70 -146h-197l-127 -290h197l-70 -146h-198l-213 -464h-208l212 464h-321l-213 -464h-208l211 464h-193l70 146h194l126 290h-192l70 146h192l210 459h212l-211 -459h320l209 459h212zM597 900l-127 -290h320l126 290h-319z" />
<glyph unicode="$" horiz-adv-x="1259" d="M840 1344l-108 -504q37 -14 61.5 -24t59 -25t57.5 -28t52 -31t47 -36.5t38 -41.5t30 -49t17.5 -55.5t6 -64.5t-9.5 -74q-38 -180 -185.5 -297.5t-359.5 -139.5l-44 -206h-156l44 205q-142 14 -256 85.5t-184 191.5l141 112q143 -202 331 -237l115 534q-41 15 -69.5 26.5 t-67 29t-64.5 33t-56.5 38.5t-50 46t-37.5 53.5t-25 64t-7.5 75t9.5 87.5q36 169 184.5 274.5t364.5 117.5l39 182h157l-41 -189q109 -17 200.5 -69t153.5 -134l-135 -117q-98 130 -252 167zM406 1142q-19 -87 29.5 -143t152.5 -102l98 458q-109 -10 -185 -67.5t-95 -145.5z M856 386q16 76 -30.5 126t-144.5 92l-102 -479q106 20 180.5 90t96.5 171z" />
<glyph unicode="%" horiz-adv-x="2275" d="M709 1531q191 0 277.5 -141t38.5 -364t-193.5 -363.5t-336.5 -140.5q-195 0 -284 140.5t-41 363.5t196 364t343 141zM546 -36l985 1567h181l-989 -1567h-177zM688 1431q-114 0 -212 -111.5t-136 -293.5t12 -293.5t164 -111.5q110 0 204.5 111.5t133.5 293.5 q39 183 -8.5 294t-157.5 111zM1787 974q191 0 277.5 -141t38.5 -364t-193.5 -364t-336.5 -141q-195 0 -284 141t-41 364t196 364t343 141zM1766 873q-114 0 -212 -111t-136 -293t12 -293.5t164 -111.5q110 0 204.5 111.5t133.5 293.5q38 183 -9 293.5t-157 110.5z" />
<glyph unicode="&#x26;" horiz-adv-x="1673" d="M1354 782h206q-68 -319 -287 -534q62 -58 165 -144l-133 -135q-83 70 -180 160q-244 -158 -543 -158q-192 0 -327.5 58.5t-194 166t-28.5 248.5q15 71 50 132.5t78 105.5t104.5 84.5t116.5 67.5t127 56q-85 185 -59 308q32 152 158.5 245t301.5 93l-30 -144 q-76 0 -133.5 -53t-76.5 -141q-20 -95 35 -232q65 26 109 47t87.5 49t69 62t34.5 74q19 88 -15.5 141t-109.5 53l30 144q175 0 262 -93t55 -245q-12 -59 -44 -110t-71 -87.5t-99 -72t-110 -58t-123 -51.5q129 -214 372 -455q151 171 203 418zM613 117q219 0 397 122 q-276 274 -421 504q-68 -29 -117.5 -55.5t-96.5 -62.5t-76.5 -80.5t-40.5 -98.5q-31 -148 66.5 -238.5t288.5 -90.5z" />
<glyph unicode="'" horiz-adv-x="407" d="M178 1083l85 445h212l-104 -445h-193z" />
<glyph unicode="(" horiz-adv-x="645" d="M660 1703l104 -118q-150 -119 -277 -356t-183 -500q-57 -277 -30 -515t122 -338l-152 -127q-136 134 -176.5 401t25.5 579q65 302 219 567.5t348 406.5z" />
<glyph unicode=")" horiz-adv-x="645" d="M234 1585l155 118q135 -141 176 -407t-24 -567q-67 -313 -221 -579.5t-347 -400.5l-97 127q138 100 267 340.5t187 512.5q56 262 30 499.5t-126 356.5z" />
<glyph unicode="*" horiz-adv-x="1017" d="M864 802l-207 -131l-111 243l-216 -243l-151 130l229 244l-268 97l112 211l256 -107l57 290h221l-67 -290l302 107l22 -211l-306 -97z" />
<glyph unicode="+" horiz-adv-x="1032" d="M924 507h-353l-77 -363h-216l77 363h-350l31 146h350l77 362h216l-77 -362h353z" />
<glyph unicode="," horiz-adv-x="411" d="M204 309l-66 -309q-30 -142 -130.5 -229t-234.5 -87l22 106q59 0 108 58t69 152h-56l66 309h222z" />
<glyph unicode="-" horiz-adv-x="616" d="M508 507h-503l31 146h503z" />
<glyph unicode="." horiz-adv-x="401" d="M102 0h-221l66 309h221z" />
<glyph unicode="/" horiz-adv-x="811" d="M920 1530l-858 -1739h-209l854 1739h213z" />
<glyph unicode="0" horiz-adv-x="1472" d="M908 1530q188 0 312 -97.5t163 -269.5t-7 -407q-74 -348 -293.5 -561.5t-503.5 -213.5q-191 0 -318 98t-167.5 270t5.5 407q74 348 297 561t512 213zM876 1381q-190 0 -342.5 -172.5t-211.5 -452.5t20 -453t268 -173q184 0 333.5 173t208.5 453t-16.5 452.5t-259.5 172.5 z" />
<glyph unicode="1" horiz-adv-x="970" d="M754 0h-857l31 146h328l254 1198q-48 -1 -104.5 -17.5t-96.5 -40.5l-33 123q172 96 471 96l-289 -1359h327z" />
<glyph unicode="2" horiz-adv-x="1191" d="M737 1536q148 0 255.5 -51.5t155.5 -150.5t20 -230q-16 -74 -75 -158t-141.5 -161t-179 -154.5t-191.5 -147.5t-174 -131.5t-131.5 -115.5t-60.5 -90h739l-31 -146h-974l22 103q13 60 69.5 129.5t138 137.5t178 140.5t193.5 146.5t179.5 146.5t141 151t73.5 149.5 q28 130 -39.5 208t-194.5 78q-110 0 -214.5 -49t-180.5 -140l-101 97q90 110 231 174t292 64z" />
<glyph unicode="3" horiz-adv-x="1355" d="M845 1536q229 0 347 -118t80 -296q-23 -106 -110 -188t-207 -118l-2 -6q132 -51 196.5 -157t32.5 -259q-42 -197 -225 -310.5t-445 -113.5t-396 119.5t-90 325.5h224q-27 -139 53 -219t240 -80q163 0 277 79.5t143 217.5q34 159 -47.5 246.5t-263.5 87.5l28 134 q153 0 248 62.5t120 180.5q27 124 -37.5 195t-196.5 71q-129 0 -223.5 -71.5t-120.5 -194.5h-223q37 177 204.5 294.5t393.5 117.5z" />
<glyph unicode="4" horiz-adv-x="1193" d="M909 266l-56 -266h-218l56 266h-738l12 55q17 79 55.5 160t90.5 135l884 920h184l-239 -1128h109l-30 -142h-110zM893 1216h-5l-590 -637q-60 -65 -82 -171h505z" />
<glyph unicode="5" horiz-adv-x="1189" d="M1137 1359h-575l-125 -394h171q235 0 355 -128.5t76 -332.5q-50 -236 -235 -385.5t-430 -149.5q-234 0 -468 73l75 149q127 -42 221 -59t202 -17q146 0 259 102t147 262q34 162 -30 250t-207 90l-396 5l216 681h775z" />
<glyph unicode="6" horiz-adv-x="1308" d="M912 1532q146 0 274 -50l-81 -134q-111 46 -211 46q-95 0 -183 -43.5t-158.5 -120t-126 -167.5t-100.5 -199h5q65 80 174.5 131t239.5 51q235 0 349 -151t63 -392q-35 -162 -133.5 -284.5t-237 -186t-295.5 -63.5q-166 0 -277.5 74t-153 205.5t-5.5 300.5 q43 205 123.5 382.5t189.5 312t249.5 211.5t294.5 77zM692 905q-146 0 -265 -109t-158 -293q-37 -172 34 -283t220 -111q141 0 257.5 108t153.5 286q38 178 -29.5 290t-212.5 112z" />
<glyph unicode="7" horiz-adv-x="1122" d="M1226 1505l-11 -55q-12 -57 -51.5 -137t-92.5 -157l-806 -1156h-234l851 1186q69 94 85 171h-782l32 148h1009z" />
<glyph unicode="8" horiz-adv-x="1355" d="M845 1536q232 0 349 -114t77 -300q-22 -106 -108 -188t-209 -120v-3q135 -52 197 -161t31 -256q-41 -191 -224.5 -307.5t-445.5 -116.5t-395.5 122.5t-90.5 322.5q30 143 139.5 247.5t267.5 151.5l1 4q-107 40 -158 121t-29 185q40 185 204.5 298.5t393.5 113.5z M814 1390q-129 0 -223.5 -73.5t-120.5 -192.5q-23 -109 41.5 -176t193.5 -67q130 0 225 67t118 176q25 120 -39 193t-195 73zM677 747q-161 0 -278 -90t-148 -236q-29 -137 51 -221t241 -84t276 81.5t144 215.5q32 150 -46.5 242t-239.5 92z" />
<glyph unicode="9" horiz-adv-x="1284" d="M764 1536q114 0 205.5 -37.5t148.5 -107t78 -168.5t-5 -221l-113 -534q-49 -228 -243 -363.5t-451 -135.5q-92 0 -178.5 14t-137.5 38l68 140q114 -52 279 -52t290 99t160 260l39 174h-4q-67 -79 -166.5 -126.5t-221.5 -47.5q-224 0 -337.5 150t-64.5 384q50 236 232 385 t422 149zM735 1395q-143 0 -254 -110.5t-147 -282.5q-38 -178 30 -286t204 -108q139 0 250.5 112t151.5 286q37 175 -32 282t-203 107z" />
<glyph unicode=":" horiz-adv-x="434" d="M285 706h-222l66 309h221zM134 0h-221l66 309h221z" />
<glyph unicode=";" horiz-adv-x="477" d="M345 706h-222l66 309h222zM261 309l-66 -309q-30 -142 -130.5 -229t-234.5 -87l22 106q59 0 108 58t69 152h-56l66 309h222z" />
<glyph unicode="&#x3c;" horiz-adv-x="815" d="M768 804l-568 -290q-11 -4 -13 -15t6 -16l448 -278l-43 -203l-558 383q-23 19 -33 51.5t-4 62.5q7 34 30.5 65.5t55.5 49.5l722 392z" />
<glyph unicode="=" horiz-adv-x="1032" d="M937 572l-27 -128h-919l31 146l28 128h918z" />
<glyph unicode="&#x3e;" horiz-adv-x="815" d="M111 1006l556 -392q24 -18 34 -49.5t3 -65.5q-7 -31 -31 -63t-55 -51l-721 -383l44 203l565 278q12 8 14 16q2 9 -7 15l-445 290z" />
<glyph unicode="?" horiz-adv-x="1138" d="M734 1536q229 0 347 -118t80 -296q-12 -56 -45.5 -109t-78 -96t-96.5 -85t-103.5 -83t-96 -82t-76.5 -89t-43 -98h-220q12 57 45.5 112t78.5 99.5t96.5 88t103 84.5t95 81t75.5 86.5t42 92.5q27 124 -38 195t-197 71q-129 0 -223 -71t-120 -195h-224q37 177 204.5 294.5 t393.5 117.5zM523 0h-225l48 225h225z" />
<glyph unicode="@" horiz-adv-x="2340" d="M1331 1536q313 0 526 -125.5t295 -354.5t19 -528q-51 -237 -198 -383.5t-326 -144.5q-101 0 -161.5 37t-68.5 100h-3q-58 -76 -171 -122t-239 -46q-125 0 -221 41.5t-147.5 113t-71 167.5t6.5 205q51 239 238 394.5t442 155.5q217 0 325 -118t67 -311l-66 -320 q-15 -73 10 -115t90 -42q80 0 158 106t113 274q55 258 -6.5 455t-228 305t-414.5 108q-247 0 -467.5 -109t-376.5 -311t-211 -462q-31 -156 -15.5 -289t79.5 -239.5t163.5 -181.5t236.5 -115t298 -40q138 0 277 24l-4 -144q-135 -28 -311 -28q-196 0 -361.5 47t-285 134 t-197 211.5t-96.5 279.5t17 337q65 305 253 541.5t457.5 364.5t575.5 128zM1221 905q-163 0 -283.5 -116t-157.5 -291q-19 -77 -9.5 -147.5t39 -124t87 -85t135.5 -31.5q135 0 229.5 63.5t116.5 167.5l61 298q25 120 -34.5 193t-183.5 73z" />
<glyph unicode="A" horiz-adv-x="1411" d="M1193 0h-224l-43 415h-586l-220 -415h-223l677 1243q82 140 172 216.5t173 76.5h58zM908 566l-83 726q-18 0 -42.5 -27.5t-48.5 -75.5l-316 -623h490z" />
<glyph unicode="B" horiz-adv-x="1327" d="M723 1538q177 0 301 -45t182 -139.5t29 -229.5q-23 -104 -104.5 -193.5t-187.5 -126.5v-4q117 -57 176 -155.5t34 -217.5q-31 -145 -139 -249t-265.5 -155t-349.5 -51q-185 0 -372 26l322 1514q225 26 374 26zM720 1393q-74 0 -179 -12l-108 -510h252q120 0 207 67 t113 188q28 133 -51 200t-234 67zM401 721l-126 -591q99 -13 182 -13q118 0 214.5 34.5t163 105t87.5 169.5q29 139 -42 217t-214 78h-265z" />
<glyph unicode="C" horiz-adv-x="1361" d="M1018 1535q252 0 411 -120l-135 -135q-125 106 -307 106q-150 0 -287.5 -77.5t-239 -223t-141.5 -332.5q-60 -282 50 -458.5t339 -176.5q192 0 359 116l82 -130q-208 -135 -472 -135q-219 0 -367.5 98.5t-204.5 277.5t-7 408t183 407.5t326.5 276.5t410.5 98z" />
<glyph unicode="D" horiz-adv-x="1503" d="M651 1536q205 0 365 -54.5t259 -153t135.5 -239.5t0.5 -309q-51 -240 -205.5 -424t-386.5 -284.5t-507 -100.5q-133 0 -285 27l322 1511q175 27 302 27zM661 1385q-75 0 -117 -6l-267 -1253q31 -7 84 -7q309 0 536.5 182t290.5 479q58 272 -87 438.5t-440 166.5z" />
<glyph unicode="E" horiz-adv-x="1196" d="M1279 1505l-32 -148h-601q-51 0 -87.5 -39.5t-53.5 -113.5l-69 -326h668l-31 -148h-667l-123 -581h728l-32 -149h-951l253 1190q31 148 115.5 231.5t201.5 83.5h681z" />
<glyph unicode="F" horiz-adv-x="958" d="M1030 1357h-384q-51 0 -87.5 -39.5t-53.5 -113.5l-69 -326h451l-31 -148h-450l-155 -730h-223l250 1177q33 154 118 241t202 87h463z" />
<glyph unicode="G" horiz-adv-x="1464" d="M1018 1532q121 0 233.5 -34.5t188.5 -92.5l-135 -142q-62 55 -149.5 88t-168.5 33q-236 0 -419.5 -170t-243.5 -450q-61 -287 47 -461t339 -174q129 0 276 80l88 398h-309l32 148h529l-136 -627q-112 -68 -246 -108t-264 -40q-222 0 -371.5 99.5t-203.5 277.5t-5 407 q48 225 178 399.5t322.5 271.5t417.5 97z" />
<glyph unicode="H" horiz-adv-x="1519" d="M1172 0h-224l158 742h-697l-158 -742h-223l320 1505h223l-130 -612h697l130 612h224z" />
<glyph unicode="I" horiz-adv-x="598" d="M250 0h-222l320 1505h222z" />
<glyph unicode="J" horiz-adv-x="544" d="M542 1505l-333 -1564q-47 -220 -255.5 -348.5t-512.5 -131.5l30 140q209 0 347.5 89t172.5 251l332 1564h219z" />
<glyph unicode="K" horiz-adv-x="1253" d="M918 915q168 -111 133 -385l-72 -530h-219l73 536q21 155 -41 234.5t-191 79.5q-91 0 -179 -22l-176 -828h-218l320 1505h218l-115 -543q101 19 195 19q46 0 79 -4q78 57 129 162l175 366h228l-206 -421q-46 -95 -133 -169z" />
<glyph unicode="L" horiz-adv-x="1013" d="M571 1507l-259 -1210q-14 -69 6 -109t71 -40h439l-31 -148h-519q-116 0 -164.5 85.5t-18.5 229.5l253 1192h223z" />
<glyph unicode="M" horiz-adv-x="1744" d="M1270 0l178 1285q-22 -1 -55.5 -43t-59.5 -101l-516 -1141h-222l-31 1141q-2 60 -17 102t-37 42l-369 -1285h-216l445 1505h112q118 0 193.5 -100t71.5 -259l11 -884h7l387 884q62 160 178.5 259.5t238.5 99.5h112l-195 -1505h-216z" />
<glyph unicode="N" horiz-adv-x="1433" d="M1086 0h-151q-90 0 -158 101.5t-86 265.5l-127 791q-8 55 -25.5 91t-35.5 36l-258 -1285h-217l320 1505h151q90 0 158.5 -101t86.5 -265l127 -792q8 -55 25 -90.5t35 -35.5l258 1284h217z" />
<glyph unicode="O" d="M999 1535q218 0 364.5 -97t200 -275t4.5 -411q-76 -355 -323 -569t-578 -214q-219 0 -365.5 96.5t-200 274.5t-3.5 412q50 233 179 411t316.5 275t405.5 97zM968 1386q-230 0 -408 -174.5t-239 -459.5q-61 -287 42.5 -460.5t334.5 -173.5t408 173.5t238 460.5 q61 285 -42.5 459.5t-333.5 174.5z" />
<glyph unicode="P" horiz-adv-x="1259" d="M731 1536q280 0 422 -136.5t94 -361.5q-47 -220 -243.5 -354.5t-473.5 -134.5q-78 0 -164 19l-121 -568h-217l320 1505q186 31 383 31zM721 1390q-111 0 -184 -17l-140 -657q62 -20 167 -20q175 0 301 94t159 249q34 158 -49.5 254.5t-253.5 96.5z" />
<glyph unicode="Q" d="M999 1535q219 0 366 -99.5t199.5 -277t3.5 -406.5q-44 -207 -179.5 -385.5t-305.5 -257.5l-1 -2q124 0 187 -73t39 -187h-193q13 62 -20 92t-93 30h-335q-219 0 -365.5 99t-199.5 277t-4 407t176.5 406.5t316.5 277t408 99.5zM968 1386q-228 0 -407 -173.5t-240 -460.5 t44 -460.5t333 -173.5h133q173 46 318 223t195 411q61 287 -44 460.5t-332 173.5z" />
<glyph unicode="R" horiz-adv-x="1284" d="M731 1536q280 0 422 -136.5t94 -361.5q-26 -119 -106.5 -223.5t-195.5 -165.5q71 -85 71 -203l9 -446h-227l-2 410q-3 122 -64 165q-96 -26 -202 -26q-71 0 -164 19l-121 -568h-217l320 1505q186 31 383 31zM721 1392q-110 0 -184 -18l-140 -658q62 -20 167 -20 q175 0 301 94t159 249q34 158 -49.5 255.5t-253.5 97.5z" />
<glyph unicode="S" horiz-adv-x="1261" d="M771 1505q140 0 259 -55t197 -156l-135 -117q-65 86 -160 133t-203 47q-125 0 -214 -59t-109 -156q-12 -58 7 -104t61 -76t99.5 -58.5t122 -50t128.5 -50t119.5 -60t95 -79.5t54.5 -107.5t-2 -145.5q-43 -200 -216.5 -321t-416.5 -121q-164 0 -297 73t-211 208l141 112 q84 -119 188.5 -181.5t218.5 -62.5q135 0 233 74t124 194q11 52 -9 94t-62.5 69.5t-100.5 53.5t-122.5 47t-129 49.5t-119.5 61.5t-94 83.5t-53 114t4 153.5q38 180 202.5 286.5t399.5 106.5z" />
<glyph unicode="T" horiz-adv-x="1028" d="M1099 1354h-347l-287 -1354h-222l287 1354h-345l32 151h914z" />
<glyph unicode="U" horiz-adv-x="1398" d="M529 1505l-209 -983q-38 -182 25 -293t205 -111q155 0 275.5 118.5t161.5 311.5l203 957h222l-203 -957q-56 -261 -245.5 -420t-444.5 -159q-242 0 -358.5 151t-63.5 398l210 987h222z" />
<glyph unicode="V" horiz-adv-x="1212" d="M1316 1505l-573 -1212q-63 -131 -159 -212t-186 -81h-58l-123 1505h224l52 -1273q17 0 42.5 28t48.5 74l509 1171h223z" />
<glyph unicode="W" horiz-adv-x="1720" d="M1824 1505l-450 -1212q-47 -128 -149 -210.5t-196 -82.5h-101l38 1233h-7l-486 -1233h-102q-94 0 -160.5 82.5t-59.5 210.5l66 1212h223l-108 -1208q-4 -45 14.5 -74t45.5 -29l517 1311h223l-40 -1311q26 0 56 29t47 74l406 1208h223z" />
<glyph unicode="X" horiz-adv-x="1351" d="M1449 1505l-664 -736l349 -769h-227l-264 594l-519 -594h-227l670 760l-334 745h228l250 -570l511 570h227z" />
<glyph unicode="Y" horiz-adv-x="1265" d="M710 597l-127 -597h-221l127 597l-285 908h227l205 -719h7l512 719h226z" />
<glyph unicode="Z" horiz-adv-x="1089" d="M1172 1505l-10 -50q-13 -54 -61 -126t-134 -178l-728 -896q-60 -70 -68 -106h730l-32 -149h-972l11 53q12 54 58 122.5t130 170.5l740 895q69 82 76 116h-667l32 148h895z" />
<glyph unicode="[" horiz-adv-x="778" d="M228 -86h312l-31 -146h-518l412 1918h517l-31 -146h-311z" />
<glyph unicode="\" horiz-adv-x="811" d="M551 -209h-210l-119 1739h214z" />
<glyph unicode="]" horiz-adv-x="778" d="M224 1540l31 146h518l-404 -1918h-517l31 146h311l342 1626h-312z" />
<glyph unicode="^" horiz-adv-x="1036" d="M776 461l-220 395q-4 10 -13 10t-18 -10l-388 -395l-117 116l435 413q27 25 61.5 40.5t64.5 15.5t57.5 -15t44.5 -41l260 -413z" />
<glyph unicode="_" horiz-adv-x="1241" d="M987 -178h-1128l31 146h1128z" />
<glyph unicode="`" horiz-adv-x="485" d="M342 1554l214 -280l-152 -126l-223 271z" />
<glyph unicode="a" horiz-adv-x="1335" d="M476 -31q-125 0 -221 41.5t-147.5 113t-71 167.5t6.5 205q51 239 238 394.5t442 155.5q221 0 328 -114t64 -315l-65 -320q-15 -71 8 -114.5t75 -42.5l-30 -140q-195 0 -214 137h-3q-58 -76 -171 -122t-239 -46zM850 341l61 298q25 120 -34.5 193t-183.5 73 q-163 0 -283.5 -116t-157.5 -291q-19 -77 -9.5 -147.5t39 -124t87 -85t135.5 -31.5q135 0 229.5 63.5t116.5 167.5z" />
<glyph unicode="b" horiz-adv-x="1226" d="M574 1536l-110 -519q77 31 165 31q255 0 377.5 -149.5t71.5 -387.5q-27 -129 -93 -233t-157 -170t-198.5 -101t-223.5 -35q-75 0 -148.5 22.5t-118.5 58.5q-81 -53 -228 -53l30 140q53 0 92 33.5t51 88.5l270 1274h220zM598 907q-86 2 -165 -37l-130 -612 q-13 -58 -30 -96q60 -50 161 -50q147 0 264.5 109t155.5 290q38 180 -34.5 288t-221.5 108z" />
<glyph unicode="c" horiz-adv-x="1005" d="M722 1046q70 0 141 -17t118 -45l-107 -132q-38 23 -87 38t-91 15q-154 0 -270.5 -107.5t-154.5 -283.5q-38 -182 30 -293.5t218 -111.5q44 0 98.5 15.5t98.5 40.5l60 -126q-61 -31 -141.5 -50.5t-149.5 -19.5q-249 0 -369.5 150t-68.5 395q51 239 236.5 385.5 t438.5 146.5z" />
<glyph unicode="d" horiz-adv-x="1226" d="M1206 1536l-271 -1274q-12 -55 13 -88.5t78 -33.5l-30 -140q-69 0 -124.5 14.5t-81.5 38.5q-60 -36 -142.5 -58.5t-157.5 -22.5q-116 0 -208.5 34.5t-155.5 102.5t-84.5 168.5t5.5 233.5q51 238 236.5 387.5t440.5 149.5q88 0 151 -31l111 519h220zM695 907 q-149 0 -268 -108t-157 -288q-38 -181 32.5 -290t217.5 -109q101 0 183 50q0 41 11 96l130 612q-63 39 -149 37z" />
<glyph unicode="e" horiz-adv-x="1224" d="M691 1046q220 0 338 -103t82 -270q-35 -166 -174.5 -251.5t-372.5 -85.5h-285q11 -105 68 -163.5t151 -58.5q173 0 355 54l6 -145q-208 -54 -391 -54q-242 0 -357 152t-62 402q50 237 224.5 380t417.5 143zM871 669q22 103 -37 167t-172 64q-137 0 -234.5 -100 t-135.5 -277q-5 -20 -11 -65h282q117 0 203 60.5t105 150.5z" />
<glyph unicode="f" horiz-adv-x="600" d="M767 1536l-29 -139q-90 0 -153 -47t-79 -122l-45 -213h161l-31 -148h-162l-222 -1045q-32 -148 -162.5 -239t-311.5 -91l30 139q84 0 145.5 47t77.5 122l227 1067h-107l30 148h109l40 191q32 148 163.5 239t318.5 91z" />
<glyph unicode="g" horiz-adv-x="1269" d="M737 1046q99 0 174 -31t100 -81q35 38 101.5 61t142.5 23l-30 -141q-53 0 -92 -30.5t-49 -81.5l-172 -811q-31 -146 -138 -256.5t-263 -167.5t-339 -57q-90 0 -220 23l62 144q72 -25 163 -25q190 0 329.5 91.5t171.5 241.5l14 63q-93 -28 -203 -28q-251 0 -371.5 147.5 t-69.5 387.5q22 101 70 187.5t114.5 148.5t148.5 105.5t172 65t184 21.5zM703 905q-144 0 -268 -102.5t-163 -284.5q-38 -178 29.5 -286t218.5 -108q110 0 203 34l134 629q11 53 -31 85.5t-123 32.5z" />
<glyph unicode="h" horiz-adv-x="1265" d="M574 1536l-113 -532q132 42 255 42q213 0 313.5 -119t54.5 -334l-126 -593h-220l128 599q32 151 -20 233.5t-174 82.5q-116 0 -241 -54l-183 -861h-220l326 1536h220z" />
<glyph unicode="i" horiz-adv-x="591" d="M508 1227h-222l66 309h221zM245 0h-217l216 1015h217z" />
<glyph unicode="j" horiz-adv-x="593" d="M506 1215h-222l69 321h221zM462 1015l-226 -1062q-47 -223 -203.5 -357.5t-383.5 -134.5l30 140q126 0 215.5 93t124.5 259l225 1062h218z" />
<glyph unicode="k" horiz-adv-x="1214" d="M1150 1014l-149 -190q-103 -129 -150 -173q65 -53 88.5 -146.5t15.5 -233.5l-15 -271h-221l18 277q11 166 -30 240t-161 74q-91 0 -179 -22l-121 -569h-218l326 1536h219l-177 -833q101 19 195 19q41 0 84 -5q58 47 146 162l104 135h225z" />
<glyph unicode="l" horiz-adv-x="593" d="M245 0h-217l326 1536h218z" />
<glyph unicode="m" horiz-adv-x="1943" d="M1399 1046q217 0 313.5 -119t51.5 -332l-127 -595h-220l128 601q32 150 -17.5 231t-173.5 81q-69 0 -148 -17.5t-138 -45.5q40 -104 8 -255l-127 -595h-219l127 601q32 150 -17.5 231t-173.5 81q-140 0 -261 -54q10 -43 -5 -111l-159 -748h-220l160 753q11 55 -12 88.5 t-72 33.5l30 140q53 0 104 -14.5t81 -38.5q76 38 186 61t214 23q184 0 280 -88q81 40 193 64t214 24z" />
<glyph unicode="n" horiz-adv-x="1263" d="M719 1046q217 0 313 -119t51 -332l-126 -595h-220l128 601q32 150 -18 232t-173 82q-62 0 -134 -15.5t-128 -39.5q10 -45 -5 -112l-159 -748h-220l160 753q12 56 -13 90t-77 34l29 138q123 0 194 -53q77 38 186.5 61t211.5 23z" />
<glyph unicode="o" horiz-adv-x="1304" d="M714 1046q249 0 370 -148t70 -389q-52 -243 -236 -391.5t-433 -148.5t-370 148.5t-69 391.5q51 241 235 389t433 148zM686 903q-150 0 -264 -108.5t-152 -285.5q-38 -179 29.5 -289t217.5 -110q148 0 262.5 110t152.5 289q38 177 -30 285.5t-216 108.5z" />
<glyph unicode="p" horiz-adv-x="1226" d="M-82 -518l270 1273q12 55 -12.5 89t-77.5 34l29 140q69 0 124.5 -14.5t81.5 -38.5q60 36 142.5 58.5t158.5 22.5q116 0 208.5 -34.5t155.5 -102.5t84.5 -169t-5.5 -234q-51 -238 -237 -387.5t-441 -149.5q-85 0 -151 32l-110 -519h-220zM428 110q149 0 268 108t157 288 q38 181 -32.5 290.5t-217.5 109.5q-101 0 -183 -50q0 -42 -11 -97l-130 -611q64 -40 149 -38z" />
<glyph unicode="q" horiz-adv-x="1226" d="M549 -518l110 519q-79 -32 -164 -32q-255 0 -377.5 149.5t-71.5 387.5q36 171 139 295.5t240 184.5t293 60q76 0 148.5 -22.5t117.5 -58.5q81 53 228 53l-29 -140q-53 0 -92 -34t-51 -89l-271 -1273h-220zM526 110q84 -2 165 38l130 611q15 65 29 97q-60 50 -161 50 q-147 0 -264.5 -109.5t-155.5 -290.5q-38 -180 35 -288t222 -108z" />
<glyph unicode="r" horiz-adv-x="757" d="M762 1046l-30 -142q-132 0 -229.5 -76.5t-123.5 -200.5l-133 -627h-218l217 1020h165l-28 -129h5q51 73 150.5 114t224.5 41z" />
<glyph unicode="s" horiz-adv-x="907" d="M492 1046q99 0 183 -43t140 -117l-129 -99q-74 120 -195 120q-71 0 -119.5 -32.5t-60.5 -88.5q-7 -35 4.5 -65t37.5 -51t61.5 -42t75.5 -38t80 -39t74 -45.5t58 -57t33 -74t-2 -95.5q-29 -139 -155.5 -224.5t-301.5 -85.5q-105 0 -197 51.5t-147 143.5l119 86 q76 -141 254 -141q78 0 133.5 43t70.5 114q9 40 -13.5 73t-64 57.5t-93.5 48t-102.5 51.5t-90 62t-58 86t-4.5 117q27 128 140 206.5t269 78.5z" />
<glyph unicode="t" horiz-adv-x="616" d="M428 867l-126 -591q-16 -74 20 -120t109 -46l-30 -141q-171 0 -256.5 90.5t-53.5 238.5l121 569h-105l32 148h105l61 287l233 70l-76 -357h161l-31 -148h-164z" />
<glyph unicode="u" horiz-adv-x="1236" d="M1153 1015l-113 -532q-50 -231 -215 -372.5t-386 -141.5q-210 0 -310 134t-53 353l119 559h220l-120 -567q-32 -152 16 -245t158 -93q122 0 218 100t130 263l115 542h221z" />
<glyph unicode="v" horiz-adv-x="1130" d="M1145 1015l-547 -948q-25 -44 -74 -71t-104 -27q-54 0 -92.5 26.5t-47.5 69.5l-183 950h220l123 -827q2 -20 20 -20q19 0 27 20l438 827h220z" />
<glyph unicode="w" horiz-adv-x="1708" d="M1722 1015l-472 -948q-25 -44 -76 -71t-106 -27q-59 0 -97 26.5t-41 69.5l-59 728h-5l-341 -726q-20 -44 -69.5 -71t-109.5 -27q-55 0 -93.5 26.5t-46.5 69.5l-109 950h221l44 -834q0 -20 23 -20q21 0 29 20l392 834h208l73 -834q0 -20 21 -20q20 0 30 20l364 834h220z " />
<glyph unicode="x" horiz-adv-x="997" d="M1001 1016l-451 -492l247 -524h-217l-165 356l-320 -356h-214l463 516l-234 500h218l153 -332l302 332h218z" />
<glyph unicode="y" horiz-adv-x="1157" d="M1172 1015l-735 -1318q-73 -129 -190 -191.5t-257 -62.5q-70 0 -148 16l68 150q61 -11 102 -11q79 0 137.5 32t102.5 115l126 235q-66 8 -113 64.5t-58 138.5l-102 832h220l81 -797q4 -37 25.5 -59t51.5 -22l469 878h220z" />
<glyph unicode="z" horiz-adv-x="958" d="M949 1015l-17 -77q-13 -62 -57.5 -123t-108.5 -108l-556 -463q-59 -51 -69 -95h649l-32 -149h-877l16 77q15 69 61.5 135.5t113.5 118.5l566 470q40 31 49 66h-578l32 148h808z" />
<glyph unicode="{" horiz-adv-x="540" d="M683 1686l-31 -147q-47 0 -81.5 -39.5t-46.5 -96.5l-105 -494q-11 -52 -44 -101.5t-78 -78.5q33 -23 46 -70.5t1 -102.5l-105 -494q-13 -58 5 -97t65 -39l-32 -147q-137 0 -203 74.5t-39 200.5l101 472q16 75 1.5 121t-52.5 46l16 72q40 0 72.5 46t49.5 123l104 490 q25 120 122 191t234 71z" />
<glyph unicode="|" horiz-adv-x="585" d="M185 -232h-206l411 1918h206z" />
<glyph unicode="}" horiz-adv-x="540" d="M224 1539l31 147q137 0 203.5 -71t41.5 -191l-104 -490q-17 -76 -3.5 -122.5t53.5 -46.5l-15 -72q-38 0 -72 -46t-50 -121l-100 -472q-27 -126 -124.5 -200.5t-234.5 -74.5l31 147q47 0 81 39t47 97l105 494q12 55 45.5 102.5t75.5 70.5q-32 29 -44.5 78.5t-1.5 101.5 l105 494q12 57 -5.5 96.5t-64.5 39.5z" />
<glyph unicode="~" horiz-adv-x="1089" d="M350 719q46 0 95.5 -23.5t86 -51.5t81 -51.5t80.5 -23.5q48 0 96.5 37.5t72.5 91.5l111 -28q-37 -114 -123 -187.5t-191 -73.5q-45 0 -94.5 23.5t-86 51t-81 51t-81.5 23.5q-49 0 -97 -36.5t-73 -93.5l-111 30q38 114 124 187.5t191 73.5z" />
<glyph unicode="&#xa1;" horiz-adv-x="589" d="M261 1124l48 226h225l-48 -226h-225zM211 -156h-219l218 1025h219z" />
<glyph unicode="&#xa2;" horiz-adv-x="1005" d="M981 984l-107 -132q-64 40 -142 50l-170 -790q82 11 154 53l60 -126q-110 -57 -244 -68l-55 -252h-143l55 257q-203 29 -295.5 174t-46.5 364q46 213 200 354.5t370 170.5l59 274h144l-58 -269q133 -10 219 -60zM271 514q-31 -148 9.5 -251.5t140.5 -138.5l164 765 q-116 -34 -199.5 -133.5t-114.5 -241.5z" />
<glyph unicode="&#xa3;" horiz-adv-x="1021" d="M744 258l111 -28q-37 -114 -123 -187.5t-191 -73.5q-45 0 -94.5 23.5t-86 51.5t-81 51.5t-81.5 23.5q-49 0 -97 -36.5t-73 -93.5l-111 29q22 65 60 121t85 88q48 31 65 113l112 527h-103l30 148h104l41 191q32 148 166 238.5t321 90.5l-30 -141q-91 0 -156 -46t-81 -120 l-45 -213h163l-31 -148h-162l-106 -501q-13 -59 -43 -112q42 -11 92 -43t94 -56.5t82 -24.5q48 0 96.5 37t72.5 91z" />
<glyph unicode="&#xa4;" horiz-adv-x="1290" d="M1296 1239l-226 -216q71 -124 34 -296q-38 -179 -169 -304l139 -227h-229l-72 119q-112 -49 -231 -49q-121 0 -209 48l-124 -118h-229l235 227q-77 124 -40 304q37 173 160 296l-134 216h234l64 -102q114 53 240 53q131 0 223 -57l111 106h223zM393 727q-31 -145 20 -230 t160 -85q108 0 194.5 85t117.5 230q31 146 -19 231.5t-158 85.5q-110 0 -197 -85.5t-118 -231.5z" />
<glyph unicode="&#xa5;" horiz-adv-x="1290" d="M818 746h283l-31 -146h-347l-34 -161h346l-31 -146h-346l-63 -293h-220l62 293h-351l31 146h351l34 161h-351l31 146h287l-252 759h226l202 -738h7l515 738h226z" />
<glyph unicode="&#xa6;" horiz-adv-x="577" d="M451 1042h-202l137 644h202zM181 -232h-202l136 644h203z" />
<glyph unicode="&#xa7;" horiz-adv-x="1261" d="M406 1142q-12 -58 7 -104t61 -76t99.5 -58t122 -49.5t128.5 -50t119.5 -60t95 -79.5t54.5 -107.5t-2 -145.5q-32 -154 -152 -266q74 -99 44 -242q-43 -200 -216.5 -321.5t-416.5 -121.5q-164 0 -297 73t-211 208l141 112q84 -119 188.5 -181.5t218.5 -62.5 q135 0 233.5 74t124.5 194q11 52 -9 94t-62.5 69.5t-100.5 53.5t-123 47t-129 49.5t-119.5 61.5t-94.5 83.5t-53 114t4 153.5q31 146 152 248q-77 105 -44 260q38 180 202.5 286.5t399.5 106.5q140 0 259 -55t197 -156l-135 -117q-65 86 -160 133t-203 47q-125 0 -214 -59 t-109 -156zM298 634q-12 -54 5.5 -98.5t52.5 -73.5t91.5 -57.5t110 -47.5t123 -46.5t116.5 -52.5q43 57 58 128q11 50 -7.5 90t-54 66.5t-92 52.5t-111.5 44.5t-123.5 45.5t-116.5 54q-40 -46 -52 -105z" />
<glyph unicode="&#xa8;" horiz-adv-x="620" d="M680 1536l-66 -309h-407l66 309h407z" />
<glyph unicode="&#xa9;" horiz-adv-x="1585" d="M957 1534q189 0 330.5 -91.5t201.5 -245.5t22 -333q-38 -180 -164 -334t-306 -244.5t-369 -90.5t-329.5 90.5t-199.5 244.5t-21 334q38 179 162.5 333t304 245.5t368.5 91.5zM939 1437q-222 0 -407.5 -161.5t-238.5 -408.5q-35 -164 6.5 -296.5t145.5 -206t250 -73.5 q225 0 410.5 163.5t238.5 412.5q35 163 -6.5 294t-146.5 203.5t-252 72.5zM928 1268q66 0 127.5 -19t101.5 -52l-77 -92q-65 63 -173 63q-105 0 -189.5 -83.5t-113.5 -219.5t18 -220t152 -84q50 0 105.5 18t97.5 49l40 -89q-54 -36 -125.5 -56.5t-139.5 -20.5 q-177 0 -264.5 110.5t-48.5 292.5t175 292.5t314 110.5z" />
<glyph unicode="&#xaa;" horiz-adv-x="1064" d="M499 732q-189 0 -276.5 113.5t-51.5 280.5q38 178 179.5 295t334.5 117q167 0 248.5 -85.5t49.5 -235.5l-49 -239q-12 -57 5 -87.5t60 -28.5l-21 -107q-72 -1 -119 27.5t-50 74.5h-4q-41 -57 -124.5 -91t-181.5 -34zM773 1011l45 222q19 90 -23.5 144t-132.5 54 q-119 0 -207 -86t-116 -217q-26 -121 22 -204.5t160 -83.5q98 0 167 46.5t85 124.5z" />
<glyph unicode="&#xab;" horiz-adv-x="1245" d="M612 285l-97 -130l-574 466l376 465l153 -130l-259 -335zM1129 285l-98 -130l-574 466l376 465l153 -130l-259 -335z" />
<glyph unicode="&#xac;" horiz-adv-x="1032" d="M864 225h-217l60 280h-703l31 146h919z" />
<glyph unicode="&#xad;" horiz-adv-x="804" d="M751 653l-31 -146h-853l31 146h853z" />
<glyph unicode="&#xae;" horiz-adv-x="1536" d="M932 1534q189 0 330.5 -91.5t201.5 -245.5t22 -333q-38 -180 -164 -334t-306 -244.5t-369 -90.5t-329.5 90.5t-199.5 244.5t-21 334q38 179 162.5 333t304 245.5t368.5 91.5zM914 1437q-222 0 -407.5 -161.5t-238.5 -408.5q-35 -164 6.5 -296.5t145.5 -206t250 -73.5 q225 0 410.5 163.5t238.5 412.5q35 163 -6.5 294t-146.5 203.5t-252 72.5zM843 1271q151 0 229 -74t54 -189q-26 -119 -150 -196q15 -13 25 -41t9 -58l7 -232h-162l-3 209q3 63 -20 71q-93 -24 -158 -1l-59 -279h-156l163 768q120 22 221 22zM833 1175q-25 0 -73 -6 l-67 -314q35 -8 66 -8q85 0 139.5 41t69.5 118q17 81 -19 125t-116 44z" />
<glyph unicode="&#xaf;" horiz-adv-x="675" d="M782 1403l-29 -139h-612l29 139h612z" />
<glyph unicode="&#xb0;" horiz-adv-x="655" d="M495 1536q111 0 166 -57t35 -151t-99 -151.5t-190 -57.5t-167 57.5t-36 151.5t100 151t191 57zM475 1440q-43 0 -75.5 -30t-42.5 -80q-11 -50 8.5 -81.5t62.5 -31.5q41 0 73 31.5t43 81.5q10 50 -9 80t-60 30z" />
<glyph unicode="&#xb1;" horiz-adv-x="1032" d="M984 793l-31 -147h-352l-47 -222h-217l48 222h-351l31 147h351l47 222h216l-47 -222h352zM-41 290h919l-32 -146h-918z" />
<glyph unicode="&#xb2;" horiz-adv-x="796" d="M553 1545q155 0 238.5 -81t54.5 -216q-14 -67 -78.5 -144t-149 -145.5t-168.5 -131t-150 -117t-80 -85.5h487l-25 -118h-666l17 79q10 48 59.5 106t116.5 111t145 113t145 113t116.5 111.5t60.5 107.5q18 82 -24 130.5t-121 48.5q-70 0 -141.5 -35.5t-118.5 -95.5l-82 79 q61 78 161 124t203 46z" />
<glyph unicode="&#xb3;" horiz-adv-x="901" d="M620 1549q155 0 235.5 -81.5t54.5 -203.5q-15 -70 -72 -122.5t-137 -77.5l-1 -4q88 -36 130.5 -105t21.5 -170q-28 -134 -154 -212.5t-302 -78.5q-181 0 -271.5 85t-55.5 230h169q-22 -93 27.5 -145t155.5 -52q104 2 174.5 50.5t89.5 134.5q22 103 -32 157t-176 52 l23 110q208 -5 241 149q16 78 -23.5 122t-122.5 44q-85 0 -143 -46.5t-73 -129.5h-170q21 124 138 209t273 85z" />
<glyph unicode="&#xb4;" horiz-adv-x="485" d="M249 1148l-99 126l333 280l104 -135z" />
<glyph unicode="&#xb6;" horiz-adv-x="980" d="M580 -232h-152l348 1616h-248l-348 -1616h-152l274 1274q-82 20 -118 80.5t-17 149.5q21 101 106.5 167t200.5 66h480z" />
<glyph unicode="&#xb7;" horiz-adv-x="483" d="M284 469h-271l65 310h272z" />
<glyph unicode="&#xb8;" horiz-adv-x="407" d="M25 0l-15 -71q82 -25 121.5 -82.5t24.5 -129.5q-23 -106 -125.5 -165.5t-266.5 -59.5l20 93q150 0 178 132q28 133 -122 133l32 150h153z" />
<glyph unicode="&#xb9;" horiz-adv-x="704" d="M596 509h-591l25 119h217l164 772q-33 -2 -70 -15t-58 -30l-26 102q121 74 340 71l-194 -900h218z" />
<glyph unicode="&#xba;" horiz-adv-x="1009" d="M672 1536q190 0 282.5 -113t54.5 -291q-38 -179 -178.5 -292.5t-330.5 -113.5q-191 0 -283.5 113.5t-54.5 292.5q38 178 178.5 291t331.5 113zM649 1426q-106 0 -190.5 -80t-113.5 -214q-29 -135 21.5 -216t156.5 -81t190.5 81t113.5 216q29 134 -21.5 214t-156.5 80z " />
<glyph unicode="&#xbb;" horiz-adv-x="1214" d="M-75 956l153 130l376 -465l-574 -466l-98 130l401 336zM441 956l153 130l376 -465l-574 -466l-98 130l401 336z" />
<glyph unicode="&#xbc;" horiz-adv-x="1988" d="M1689 1536l-982 -1567h-177l978 1567h181zM653 508h-591l25 119h217l164 772q-33 -2 -70 -15t-58 -30l-27 103q120 73 341 70l-194 -900h218zM1075 173l12 56q27 126 100 202l576 600h120l-155 -726h67l-28 -132h-67l-36 -173h-149l36 173h-476zM1680 780l-369 -393 q-37 -38 -48 -82h316z" />
<glyph unicode="&#xbd;" horiz-adv-x="2099" d="M1449 1536h182l-990 -1567h-177zM653 508h-591l25 119h217l164 772q-33 -2 -70 -15t-58 -30l-27 103q120 73 341 70l-194 -900h218zM1689 1037q155 0 238.5 -80.5t54.5 -215.5q-14 -67 -78.5 -144t-149 -145.5t-168.5 -131t-150 -117t-80 -85.5h488l-25 -118h-666l16 79 q12 57 79 127.5t155 137l176 133t154.5 137t78.5 127.5q18 82 -24 130.5t-121 48.5q-70 0 -141 -35.5t-118 -95.5l-82 79q61 78 160.5 123.5t202.5 45.5z" />
<glyph unicode="&#xbe;" horiz-adv-x="2054" d="M677 1549q155 0 235.5 -81.5t54.5 -203.5q-15 -70 -72 -122.5t-137 -77.5l-1 -4q88 -36 130.5 -105t21.5 -170q-28 -134 -154 -212.5t-302 -78.5q-181 0 -271.5 85t-55.5 230h169q-22 -93 27.5 -145t155.5 -52q104 2 174 50.5t89 134.5q22 104 -31.5 157.5t-175.5 51.5 l23 110q208 -5 241 149q16 78 -23.5 122t-122.5 44q-85 0 -143 -46.5t-73 -129.5h-170q21 124 138 209t273 85zM1727 1536l-982 -1567h-177l978 1567h181zM1075 173l12 56q27 126 100 202l576 600h120l-155 -726h67l-28 -132h-67l-36 -173h-149l36 173h-476zM1680 780 l-369 -393q-37 -38 -48 -82h316z" />
<glyph unicode="&#xbf;" horiz-adv-x="1138" d="M537 1124l48 226h225l-48 -226h-225zM368 -186q-226 0 -343 117t-80 294h223q-26 -124 38 -194.5t193 -70.5q132 0 226.5 71t121.5 195q10 46 -2 93t-39 85.5t-60.5 82t-67 83t-59 88.5t-36 98.5t1.5 112.5h220q-14 -68 13.5 -133.5t74.5 -121t94 -112t73.5 -128 t10.5 -147.5q-38 -178 -206 -295.5t-397 -117.5z" />
<glyph unicode="&#xc0;" horiz-adv-x="1411" d="M908 2039l214 -280l-153 -126l-222 272zM1193 0h-224l-43 415h-586l-220 -415h-223l677 1243q82 140 172 216.5t173 76.5h58zM908 566l-83 726q-18 0 -42.5 -27.5t-48.5 -75.5l-316 -623h490z" />
<glyph unicode="&#xc1;" horiz-adv-x="1411" d="M811 1633l-99 126l333 280l104 -134zM1193 0h-224l-43 415h-586l-220 -415h-223l677 1243q82 140 172 216.5t173 76.5h58zM908 566l-83 726q-18 0 -42.5 -27.5t-48.5 -75.5l-316 -623h490z" />
<glyph unicode="&#xc2;" horiz-adv-x="1411" d="M1081 1643l-126 209q-6 8 -14 8t-18 -8l-215 -209l-101 105l241 239q54 52 131 52q35 0 65 -14.5t44 -37.5l139 -239zM1193 0h-224l-43 415h-586l-220 -415h-223l677 1243q82 140 172 216.5t173 76.5h58zM908 566l-83 726q-18 0 -42.5 -27.5t-48.5 -75.5l-316 -623h490z " />
<glyph unicode="&#xc3;" horiz-adv-x="1411" d="M1165 1957h158q-26 -119 -107 -192.5t-188 -73.5q-46 0 -76.5 14.5t-44.5 35.5t-24.5 41.5t-26.5 35t-40 14.5q-41 0 -71 -38.5t-44 -103.5h-158q26 123 106 198.5t183 75.5q47 0 79 -14.5t47 -35t26 -41.5t25 -35.5t34 -14.5q44 0 76.5 36.5t45.5 97.5zM1193 0h-224 l-43 415h-586l-220 -415h-223l677 1243q82 140 172 216.5t173 76.5h58zM908 566l-83 726q-18 0 -42.5 -27.5t-48.5 -75.5l-316 -623h490z" />
<glyph unicode="&#xc4;" horiz-adv-x="1411" d="M705 1712l66 309h407l-66 -309h-407zM1193 0h-224l-43 415h-586l-220 -415h-223l677 1243q82 140 172 216.5t173 76.5h58zM908 566l-83 726q-18 0 -42.5 -27.5t-48.5 -75.5l-316 -623h490z" />
<glyph unicode="&#xc5;" horiz-adv-x="1411" d="M992 2101q111 0 166 -56.5t35 -150.5t-99.5 -152t-190.5 -58t-166.5 58t-35.5 152t100 150.5t191 56.5zM972 2005q-43 0 -76 -30t-43 -80q-11 -50 8.5 -81t62.5 -31q41 0 74 31t43 81t-9 80t-60 30zM1193 0h-223l-44 415h-586l-220 -415h-223l677 1243q82 140 172 216.5 t173 76.5h58zM908 566l-83 726q-18 0 -42.5 -27.5t-48.5 -75.5l-316 -623h490z" />
<glyph unicode="&#xc6;" horiz-adv-x="1810" d="M1609 -2h-952l89 417h-420l-220 -415h-209l660 1216q75 138 175.5 213.5t210.5 75.5h966l-32 -148l-694 -1q-6 0 -16.5 -16t-21.5 -46.5t-18 -65.5l-74 -352h681l-32 -148h-679l-123 -581h740zM778 566l135 636q21 94 55 154h-83q-53 0 -118 -121l-362 -669h373z" />
<glyph unicode="&#xc7;" horiz-adv-x="1361" d="M987 1386q-150 0 -287.5 -77.5t-239 -223t-141.5 -332.5q-60 -282 50 -458.5t339 -176.5q192 0 359 116l82 -130q-202 -130 -456 -135l-8 -40q82 -25 121 -82.5t24 -129.5q-23 -106 -125.5 -165.5t-266.5 -59.5l20 93q151 0 179 132q28 133 -122 133l27 130 q-176 29 -292 134.5t-154.5 267t2.5 371.5q49 229 183 407.5t326.5 276.5t410.5 98q252 0 411 -120l-135 -135q-125 106 -307 106z" />
<glyph unicode="&#xc8;" horiz-adv-x="1196" d="M707 1909l161 135l214 -280l-152 -126zM1279 1505l-32 -148h-601q-51 0 -87.5 -39.5t-53.5 -113.5l-69 -326h668l-31 -148h-667l-123 -581h728l-32 -149h-951l253 1190q31 148 115.5 231.5t201.5 83.5h681z" />
<glyph unicode="&#xc9;" horiz-adv-x="1196" d="M1109 1909l-338 -271l-99 126l333 280zM1279 1505l-32 -148h-601q-51 0 -87.5 -39.5t-53.5 -113.5l-69 -326h668l-31 -148h-667l-123 -582h728l-32 -148h-951l253 1190q31 148 115.5 231.5t201.5 83.5h681z" />
<glyph unicode="&#xca;" horiz-adv-x="1196" d="M1187 1753l-146 -105l-125 209q-6 8 -15 8q-8 0 -18 -8l-215 -209l-101 105l241 239q54 52 131 52q35 0 65 -14.5t44 -37.5zM1279 1505l-32 -148h-601q-51 0 -87.5 -39.5t-53.5 -113.5l-69 -326h668l-31 -148h-667l-123 -581h728l-32 -149h-951l253 1190 q31 148 115.5 231.5t201.5 83.5h681z" />
<glyph unicode="&#xcb;" horiz-adv-x="1196" d="M1073 1717h-407l65 309h407zM1247 1357h-601q-51 0 -87.5 -39.5t-53.5 -113.5l-69 -326h668l-31 -148h-667l-123 -581h728l-32 -149h-951l253 1190q31 148 115.5 231.5t201.5 83.5h681z" />
<glyph unicode="&#xcc;" horiz-adv-x="598" d="M503 2044l213 -280l-152 -126l-223 271zM250 0h-222l320 1505h222z" />
<glyph unicode="&#xcd;" horiz-adv-x="598" d="M406 1638l-99 126l333 280l103 -135zM250 0h-222l320 1505h222z" />
<glyph unicode="&#xce;" horiz-adv-x="598" d="M676 1648l-126 209q-6 8 -15 8q-8 0 -18 -8l-215 -209l-100 105l240 239q54 52 131 52q35 0 65 -14.5t44 -37.5l139 -239zM250 0h-222l320 1505h222z" />
<glyph unicode="&#xcf;" horiz-adv-x="598" d="M773 2026l-66 -309h-407l66 309h407zM348 1505h222l-320 -1505h-222z" />
<glyph unicode="&#xd0;" horiz-adv-x="1503" d="M651 1536q205 0 365 -54.5t259 -153t135.5 -239.5t0.5 -309q-51 -240 -205.5 -424t-386.5 -284.5t-507 -100.5q-133 0 -285 27l154 722h-155l31 148h155l137 641q175 27 302 27zM1188 780q58 272 -87 438.5t-440 166.5q-75 0 -117 -6l-109 -511h192l-32 -148h-192 l-126 -594q31 -7 84 -7q309 0 536.5 182t290.5 479z" />
<glyph unicode="&#xd1;" horiz-adv-x="1433" d="M1173 1962h159q-26 -119 -107 -192.5t-188 -73.5q-46 0 -76.5 14.5t-44.5 35t-24.5 41.5t-26.5 35.5t-40 14.5q-41 0 -71 -38.5t-44 -103.5h-158q26 123 106 198.5t183 75.5q47 0 79 -14.5t47 -35.5t26 -41.5t25 -35t34 -14.5q44 0 76 36.5t45 97.5zM1086 0h-151 q-90 0 -158 101.5t-86 265.5l-127 791q-8 55 -25.5 91t-35.5 36l-258 -1285h-217l320 1505h151q90 0 158.5 -101t86.5 -265l127 -792q8 -55 25 -90.5t35 -35.5l258 1284h217z" />
<glyph unicode="&#xd2;" d="M1037 2044l214 -280l-153 -126l-223 271zM999 1535q218 0 364.5 -97t200 -275t4.5 -411q-76 -355 -323 -569t-578 -214q-219 0 -365.5 96.5t-200 274.5t-3.5 412q50 233 179 411t316.5 275t405.5 97zM968 1386q-230 0 -408 -174.5t-239 -459.5q-61 -287 42.5 -460.5 t334.5 -173.5t408 173.5t238 460.5q61 285 -42.5 459.5t-333.5 174.5z" />
<glyph unicode="&#xd3;" d="M940 1638l-99 126l333 280l103 -135zM999 1535q218 0 364.5 -97t200 -275t4.5 -411q-76 -355 -323 -569t-578 -214q-219 0 -365.5 96.5t-200 274.5t-3.5 412q50 233 179 411t316.5 275t405.5 97zM968 1386q-230 0 -408 -174.5t-239 -459.5q-61 -287 42.5 -460.5 t334.5 -173.5t408 173.5t238 460.5q61 285 -42.5 459.5t-333.5 174.5z" />
<glyph unicode="&#xd4;" d="M1210 1648l-126 209q-6 8 -15 8q-8 0 -18 -8l-214 -209l-101 105l240 239q54 52 131 52q35 0 65.5 -14.5t44.5 -37.5l138 -239zM999 1535q218 0 364.5 -97t200 -275t4.5 -411q-76 -355 -323 -569t-578 -214q-219 0 -365.5 96.5t-200 274.5t-3.5 412q50 233 179 411 t316.5 275t405.5 97zM968 1386q-230 0 -408 -174.5t-239 -459.5q-61 -287 42.5 -460.5t334.5 -173.5t408 173.5t238 460.5q61 285 -42.5 459.5t-333.5 174.5z" />
<glyph unicode="&#xd5;" d="M1293 1962h159q-26 -119 -107.5 -192.5t-188.5 -73.5q-39 0 -67 10.5t-41.5 26t-25.5 34t-19.5 34t-22 26t-35.5 10.5q-41 0 -71 -38.5t-44 -103.5h-158q26 123 106 198.5t183 75.5q47 0 79 -14.5t47 -35.5t26 -41.5t25 -35t34 -14.5q44 0 76 36.5t45 97.5zM999 1535 q218 0 364.5 -97t200 -275t4.5 -411q-76 -355 -323 -569t-578 -214q-219 0 -365.5 96.5t-200 274.5t-3.5 412q50 233 179 411t316.5 275t405.5 97zM968 1386q-230 0 -408 -174.5t-239 -459.5q-61 -287 42.5 -460.5t334.5 -173.5t408 173.5t238 460.5q61 285 -42.5 459.5 t-333.5 174.5z" />
<glyph unicode="&#xd6;" d="M834 1717l66 309h407l-66 -309h-407zM999 1535q218 0 364.5 -97t200 -275t4.5 -411q-76 -355 -323 -569t-578 -214q-219 0 -365.5 96.5t-200 274.5t-3.5 412q50 233 179 411t316.5 275t405.5 97zM1344 752q61 285 -42.5 459.5t-333.5 174.5t-408 -174.5t-239 -459.5 q-61 -287 42.5 -460.5t334.5 -173.5t408 173.5t238 460.5z" />
<glyph unicode="&#xd7;" horiz-adv-x="976" d="M816 276l-153 -127l-239 307l-365 -302l-103 121l370 305l-238 306l152 127l239 -307l365 302l104 -122l-371 -304z" />
<glyph unicode="&#xd8;" d="M1378 1692l-107 -206q195 -79 274.5 -272t22.5 -462q-76 -355 -323 -569t-578 -214q-91 0 -176 19l-89 -172h-133l109 209q-186 83 -261 273t-19 454q50 233 179 411t316.5 275t405.5 97q79 0 154 -14l89 171h136zM321 752q-41 -200 -4 -345.5t144 -220.5l616 1188 q-51 12 -109 12q-230 0 -408 -174.5t-239 -459.5zM1344 752q42 205 1 354t-156 222l-621 -1193q62 -17 130 -17q231 0 408 173.5t238 460.5z" />
<glyph unicode="&#xd9;" horiz-adv-x="1398" d="M903 2044l214 -280l-152 -126l-223 271zM529 1505l-209 -983q-38 -182 25 -293t205 -111q155 0 275.5 118.5t161.5 311.5l203 957h222l-203 -957q-56 -261 -245.5 -420t-444.5 -159q-242 0 -358.5 151t-63.5 398l210 987h222z" />
<glyph unicode="&#xda;" horiz-adv-x="1398" d="M806 1638l-99 126l333 280l104 -135zM529 1505l-209 -983q-38 -182 25 -293t205 -111q155 0 275.5 118.5t161.5 311.5l203 957h222l-203 -957q-56 -261 -245.5 -420t-444.5 -159q-242 0 -358.5 151t-63.5 398l210 987h222z" />
<glyph unicode="&#xdb;" horiz-adv-x="1398" d="M1076 1648l-125 209q-6 8 -15 8q-8 0 -18 -8l-215 -209l-101 105l241 239q54 52 131 52q35 0 65 -14.5t44 -37.5l139 -239zM529 1505l-209 -983q-38 -182 25 -293t205 -111q155 0 275.5 118.5t161.5 311.5l203 957h222l-203 -957q-56 -261 -245.5 -420t-444.5 -159 q-242 0 -358.5 151t-63.5 398l210 987h222z" />
<glyph unicode="&#xdc;" horiz-adv-x="1398" d="M701 1717l65 309h407l-65 -309h-407zM1412 1505l-203 -957q-56 -261 -245.5 -420t-444.5 -159q-242 0 -358.5 151t-63.5 398l210 987h222l-209 -983q-38 -182 25 -293t205 -111q155 0 275.5 118.5t161.5 311.5l203 957h222z" />
<glyph unicode="&#xdd;" horiz-adv-x="1265" d="M741 1638l-99 126l333 280l103 -135zM710 597l-127 -597h-221l127 597l-285 908h227l205 -719h7l512 719h226z" />
<glyph unicode="&#xde;" horiz-adv-x="1200" d="M489 1145h184q258 0 374 -111t74 -311t-207.5 -311.5t-426.5 -111.5h-177l-64 -300h-218l326 1536h219zM460 1004l-120 -562h175q157 0 254.5 70.5t127.5 209.5q30 140 -36.5 211.5t-220.5 71.5z" />
<glyph unicode="&#xdf;" horiz-adv-x="1396" d="M825 1534q218 0 331 -93.5t79 -251.5q-11 -52 -33 -92t-46.5 -63.5t-52.5 -46t-51.5 -40t-43 -45.5t-26.5 -63q-8 -39 10.5 -69t51.5 -49t71 -45t68.5 -57.5t44 -86.5t-2.5 -131q-43 -203 -210 -317.5t-410 -114.5q-124 0 -234 26l43 153q117 -28 223 -28q143 0 240.5 73 t126.5 208q9 42 -2 77.5t-35.5 62t-55.5 51l-62 49t-55 51.5t-34.5 64t-1.5 81q12 55 39 94.5t58.5 63t63 46.5t58 60.5t37.5 89.5q19 91 -38.5 143t-173.5 52q-127 0 -215 -75.5t-115 -203.5l-240 -1107h-204l235 1107q42 194 193.5 310.5t368.5 116.5z" />
<glyph unicode="&#xe0;" horiz-adv-x="1335" d="M757 1555l214 -280l-153 -126l-222 271zM476 -31q-125 0 -221 41.5t-147.5 113t-71 167.5t6.5 205q51 239 238 394.5t442 155.5q221 0 328 -114t64 -315l-65 -320q-15 -71 8 -114.5t75 -42.5l-30 -140q-195 0 -214 137h-3q-58 -76 -171 -122t-239 -46zM850 341l61 298 q25 120 -34.5 193t-183.5 73q-163 0 -283.5 -116t-157.5 -291q-19 -77 -9.5 -147.5t39 -124t87 -85t135.5 -31.5q135 0 229.5 63.5t116.5 167.5z" />
<glyph unicode="&#xe1;" horiz-adv-x="1335" d="M660 1149l-99 126l333 280l104 -135zM476 -31q-125 0 -221 41.5t-147.5 113t-71 167.5t6.5 205q51 239 238 394.5t442 155.5q221 0 328 -114t64 -315l-65 -320q-15 -71 8 -114.5t75 -42.5l-30 -140q-195 0 -214 137h-3q-58 -76 -171 -122t-239 -46zM850 341l61 298 q25 120 -34.5 193t-183.5 73q-163 0 -283.5 -116t-157.5 -291q-19 -77 -9.5 -147.5t39 -124t87 -85t135.5 -31.5q135 0 229.5 63.5t116.5 167.5z" />
<glyph unicode="&#xe2;" horiz-adv-x="1335" d="M930 1158l-126 210q-6 7 -14 7q-10 0 -18 -7l-215 -210l-101 106l241 239q53 51 131 51q35 0 65 -14t44 -37l139 -239zM476 -31q-125 0 -221 41.5t-147.5 113t-71 167.5t6.5 205q51 239 238 394.5t442 155.5q221 0 328 -114t64 -315l-65 -320q-15 -71 8 -114.5t75 -42.5 l-30 -140q-195 0 -214 137h-3q-58 -76 -171 -122t-239 -46zM850 341l61 298q25 120 -34.5 193t-183.5 73q-163 0 -283.5 -116t-157.5 -291q-19 -77 -9.5 -147.5t39 -124t87 -85t135.5 -31.5q135 0 229.5 63.5t116.5 167.5z" />
<glyph unicode="&#xe3;" horiz-adv-x="1335" d="M1014 1472h158q-26 -119 -107 -192t-188 -73q-46 0 -76.5 14.5t-44.5 35t-24.5 41t-26.5 35t-40 14.5q-41 0 -71 -38t-44 -103h-158q26 123 106 198.5t183 75.5q47 0 79 -14.5t47 -35t26 -41.5t25 -35.5t34 -14.5q44 0 76.5 36.5t45.5 96.5zM476 -31q-125 0 -221 41.5 t-147.5 113t-71 167.5t6.5 205q51 239 238 394.5t442 155.5q221 0 328 -114t64 -315l-65 -320q-15 -71 8 -114.5t75 -42.5l-30 -140q-195 0 -214 137h-3q-58 -76 -171 -122t-239 -46zM850 341l61 298q25 120 -34.5 193t-183.5 73q-163 0 -283.5 -116t-157.5 -291 q-19 -77 -9.5 -147.5t39 -124t87 -85t135.5 -31.5q135 0 229.5 63.5t116.5 167.5z" />
<glyph unicode="&#xe4;" horiz-adv-x="1335" d="M554 1228l66 309h407l-66 -309h-407zM1115 617l-65 -320q-15 -71 8 -114.5t75 -42.5l-30 -140q-194 0 -213 137h-4q-58 -76 -171 -122t-239 -46q-125 0 -221 41.5t-147.5 113t-71 167.5t6.5 205q51 239 238 394.5t442 155.5q221 0 328 -114t64 -315zM850 341l61 298 q25 120 -34.5 193t-183.5 73q-163 0 -283.5 -116t-157.5 -291q-19 -77 -9.5 -147.5t39 -124t87 -85t135.5 -31.5q135 0 229.5 63.5t116.5 167.5z" />
<glyph unicode="&#xe5;" horiz-adv-x="1335" d="M841 1617q111 0 166 -57t35 -151t-99.5 -152t-190.5 -58t-166.5 58t-35.5 152t100 151t191 57zM821 1521q-43 0 -76 -30.5t-43 -80.5q-11 -50 8.5 -81t62.5 -31q41 0 74 31t43 81t-9 80.5t-60 30.5zM476 -31q-125 0 -221 41.5t-147.5 113t-71 167.5t6.5 205 q51 239 238 394.5t442 155.5q221 0 328 -114t64 -315l-65 -320q-15 -71 8 -114.5t75 -42.5l-30 -140q-194 0 -213 137h-4q-58 -76 -171 -122t-239 -46zM850 341l61 298q25 120 -34.5 193t-183.5 73q-163 0 -283.5 -116t-157.5 -291q-19 -77 -9.5 -147.5t39 -124t87 -85 t135.5 -31.5q135 0 229.5 63.5t116.5 167.5z" />
<glyph unicode="&#xe6;" horiz-adv-x="2033" d="M723 1046q138 0 229 -52.5t124 -156.5h4q175 209 451 209q220 0 337.5 -103t81.5 -270q-35 -166 -174.5 -251.5t-372.5 -85.5h-284q11 -104 67.5 -163t150.5 -59q174 0 356 54l5 -145q-208 -54 -391 -54q-286 0 -372 245h-4q-61 -110 -189 -177.5t-266 -67.5 q-125 0 -221 41.5t-147.5 113t-71 167.5t6.5 205q51 239 238 394.5t442 155.5zM693 905q-163 0 -283.5 -116t-157.5 -291q-19 -77 -9.5 -147.5t39 -124t87 -85t135.5 -31.5q133 0 231 66.5t118 164.5l61 298q25 120 -36 193t-185 73zM1501 900q-134 0 -235 -102t-138 -273 q-7 -34 -9 -67h284q117 0 203 60.5t105 150.5q22 103 -37.5 167t-172.5 64z" />
<glyph unicode="&#xe7;" horiz-adv-x="1005" d="M696 905q-154 0 -270.5 -107.5t-154.5 -283.5q-38 -182 30 -293.5t218 -111.5q44 0 98.5 15.5t98.5 40.5l60 -126q-61 -31 -141.5 -50.5t-149.5 -19.5q-4 0 -12 0.5t-12 0.5l-8 -41q82 -25 121 -82.5t24 -129.5q-23 -106 -125 -165.5t-266 -59.5l19 93q151 0 179 132 q28 133 -122 133l30 142q-165 48 -236.5 186.5t-29.5 335.5q51 239 236.5 385.5t438.5 146.5q70 0 141 -17t118 -45l-107 -132q-38 23 -87 38t-91 15z" />
<glyph unicode="&#xe8;" horiz-adv-x="1224" d="M788 1148l-222 271l161 135l214 -280zM691 1046q220 0 338 -103t82 -270q-35 -166 -174.5 -251.5t-372.5 -85.5h-285q11 -105 68 -163.5t151 -58.5q173 0 355 54l6 -145q-208 -54 -391 -54q-242 0 -357 152t-62 402q50 237 224.5 380t417.5 143zM871 669q22 103 -37 167 t-172 64q-137 0 -234.5 -100t-135.5 -277q-5 -20 -11 -65h282q117 0 203 60.5t105 150.5z" />
<glyph unicode="&#xe9;" horiz-adv-x="1224" d="M630 1148l-99 126l333 280l104 -135zM691 1046q220 0 338 -103t82 -270q-35 -166 -174.5 -251.5t-372.5 -85.5h-285q11 -105 68 -163.5t151 -58.5q173 0 355 54l6 -145q-208 -54 -391 -54q-242 0 -357 152t-62 402q50 237 224.5 380t417.5 143zM871 669q22 103 -37 167 t-172 64q-137 0 -234.5 -100t-135.5 -277q-5 -20 -11 -65h282q117 0 203 60.5t105 150.5z" />
<glyph unicode="&#xea;" horiz-adv-x="1224" d="M527 1157l-101 106l241 239q53 51 131 51q35 0 65 -14t44 -37l139 -239l-146 -106l-126 210q-6 8 -14 8t-18 -8zM691 1046q220 0 338 -103t82 -270q-35 -166 -174.5 -251.5t-372.5 -85.5h-285q11 -105 68 -163.5t151 -58.5q173 0 355 54l6 -145q-208 -54 -391 -54 q-242 0 -357 152t-62 402q50 237 224.5 380t417.5 143zM871 669q22 103 -37 167t-172 64q-137 0 -234.5 -100t-135.5 -277q-5 -20 -11 -65h282q117 0 203 60.5t105 150.5z" />
<glyph unicode="&#xeb;" horiz-adv-x="1224" d="M524 1227l66 309h407l-66 -309h-407zM691 1046q220 0 338 -103t82 -270q-35 -166 -174.5 -251.5t-372.5 -85.5h-285q11 -105 68 -163.5t151 -58.5q173 0 355 54l6 -145q-208 -54 -391 -54q-242 0 -357 152t-62 402q50 237 224.5 380t417.5 143zM871 669q22 103 -37 167 t-172 64q-137 0 -234.5 -100t-135.5 -277q-5 -20 -11 -65h282q117 0 203 60.5t105 150.5z" />
<glyph unicode="&#xec;" horiz-adv-x="542" d="M372 1555l214 -280l-152 -126l-223 271zM220 0h-217l216 1015h217z" />
<glyph unicode="&#xed;" horiz-adv-x="542" d="M276 1149l-100 126l334 280l103 -135zM220 0h-217l216 1015h217z" />
<glyph unicode="&#xee;" horiz-adv-x="542" d="M545 1158l-125 210q-6 7 -15 7q-10 0 -18 -7l-215 -210l-100 106l240 239q53 51 131 51q35 0 65 -14t44 -37l139 -239zM220 0h-217l216 1015h217z" />
<glyph unicode="&#xef;" horiz-adv-x="542" d="M642 1537l-65 -310h-407l65 310h407zM219 1015h217l-216 -1015h-217z" />
<glyph unicode="&#xf0;" horiz-adv-x="1308" d="M1153 1444l-87 -60q107 -129 133 -351t-32 -484q-36 -169 -133 -300.5t-240 -205.5t-309 -74q-117 0 -211 36.5t-153.5 105.5t-81 168t5.5 224q51 241 229.5 392t413.5 151q130 0 217.5 -51t119.5 -131h5q3 281 -106 420l-185 -130l-58 91l158 112q-65 37 -152 37 q-99 0 -230 -46l-25 134q148 50 295 50q150 0 257 -73l108 76zM934 503q39 184 -34 293t-219 109q-145 0 -259.5 -111.5t-152.5 -290.5q-38 -178 32 -286t211 -108q149 0 267 111t155 283z" />
<glyph unicode="&#xf1;" horiz-adv-x="1263" d="M954 1472h159q-26 -119 -107.5 -192.5t-188.5 -73.5q-39 0 -67 10.5t-41.5 26t-25.5 34t-19.5 34t-22 26t-35.5 10.5q-41 0 -71 -38.5t-44 -103.5h-159q26 123 106 198.5t184 75.5q47 0 79 -14.5t47 -35.5t26 -41.5t25 -35t34 -14.5q44 0 76 36.5t45 97.5zM719 1046 q217 0 313 -119t51 -332l-126 -595h-220l128 601q32 150 -18 232t-173 82q-62 0 -134 -15.5t-128 -39.5q10 -45 -5 -112l-159 -748h-220l160 753q12 56 -13 90t-77 34l29 138q123 0 194 -53q77 38 186.5 61t211.5 23z" />
<glyph unicode="&#xf2;" horiz-adv-x="1304" d="M751 1554l214 -280l-152 -126l-223 271zM714 1046q249 0 370 -148t70 -389q-52 -243 -236 -391.5t-433 -148.5t-370 148.5t-69 391.5q51 241 235 389t433 148zM686 903q-150 0 -264 -108.5t-152 -285.5q-38 -179 29.5 -289t217.5 -110q148 0 262.5 110t152.5 289 q38 177 -30 285.5t-216 108.5z" />
<glyph unicode="&#xf3;" horiz-adv-x="1304" d="M655 1148l-100 126l334 280l103 -135zM714 1046q249 0 370 -148t70 -389q-52 -243 -236 -391.5t-433 -148.5t-370 148.5t-69 391.5q51 241 235 389t433 148zM686 903q-150 0 -264 -108.5t-152 -285.5q-38 -179 29.5 -289t217.5 -110q148 0 262.5 110t152.5 289 q38 177 -30 285.5t-216 108.5z" />
<glyph unicode="&#xf4;" horiz-adv-x="1304" d="M924 1157l-125 210q-6 8 -15 8q-8 0 -18 -8l-215 -210l-100 106l240 239q53 51 131 51q35 0 65 -14t44 -37l139 -239zM714 1046q249 0 370 -148t70 -389q-52 -243 -236 -391.5t-433 -148.5t-370 148.5t-69 391.5q51 241 235 389t433 148zM686 903q-150 0 -264 -108.5 t-152 -285.5q-38 -179 29.5 -289t217.5 -110q148 0 262.5 110t152.5 289q38 177 -30 285.5t-216 108.5z" />
<glyph unicode="&#xf5;" horiz-adv-x="1304" d="M1008 1472h158q-26 -119 -107 -192.5t-188 -73.5q-39 0 -67 10.5t-41.5 26t-25.5 34t-19.5 34t-22 26t-35.5 10.5q-41 0 -71 -38.5t-44 -103.5h-159q26 123 106 198.5t183 75.5q47 0 79 -14.5t47.5 -35.5t26.5 -41.5t25 -35t34 -14.5q44 0 76 36.5t45 97.5zM714 1046 q249 0 370 -148t70 -389q-52 -243 -236 -391.5t-433 -148.5t-370 148.5t-69 391.5q51 241 235 389t433 148zM686 903q-150 0 -264 -108.5t-152 -285.5q-38 -179 29.5 -289t217.5 -110q148 0 262.5 110t152.5 289q38 177 -30 285.5t-216 108.5z" />
<glyph unicode="&#xf6;" horiz-adv-x="1304" d="M549 1227l65 309h407l-65 -309h-407zM714 1046q249 0 370 -148t70 -389q-52 -243 -236 -391.5t-433 -148.5t-370 148.5t-69 391.5q51 241 235 389t433 148zM932 509q38 177 -30 285.5t-216 108.5q-150 0 -264 -108.5t-152 -285.5q-38 -179 29.5 -289t217.5 -110 q148 0 262.5 110t152.5 289z" />
<glyph unicode="&#xf7;" horiz-adv-x="1032" d="M681 1015l-47 -221h-216l47 221h216zM924 507h-919l31 146h919zM543 365l-47 -221h-216l47 221h216z" />
<glyph unicode="&#xf8;" horiz-adv-x="1304" d="M1023 1192l-92 -184q142 -57 201.5 -188t21.5 -311q-52 -243 -236 -391.5t-433 -148.5q-27 0 -73 4l-79 -157h-132l91 183q-154 52 -220 186.5t-26 323.5q51 241 235 389t433 148q44 0 96 -7l76 153h137zM270 509q-26 -127 0 -219.5t98 -139.5l372 749q-23 4 -54 4 q-150 0 -264 -108.5t-152 -285.5zM932 509q24 117 3 205t-83 137l-370 -739q22 -2 35 -2q148 0 262.5 110t152.5 289z" />
<glyph unicode="&#xf9;" horiz-adv-x="1236" d="M717 1554l214 -280l-152 -126l-223 271zM1153 1015l-113 -532q-50 -231 -215 -372.5t-386 -141.5q-210 0 -310 134t-53 353l119 559h220l-120 -567q-32 -152 16 -245t158 -93q122 0 218 100t130 263l115 542h221z" />
<glyph unicode="&#xfa;" horiz-adv-x="1236" d="M621 1148l-99 126l333 280l103 -135zM1153 1015l-113 -532q-50 -231 -215 -372.5t-386 -141.5q-210 0 -310 134t-53 353l119 559h220l-120 -567q-32 -152 16 -245t158 -93q122 0 218 100t130 263l115 542h221z" />
<glyph unicode="&#xfb;" horiz-adv-x="1236" d="M891 1157l-126 210q-6 8 -15 8q-8 0 -18 -8l-215 -210l-100 106l240 239q53 51 131 51q35 0 65 -14t44 -37l139 -239zM1153 1015l-113 -532q-50 -231 -215 -372.5t-386 -141.5q-210 0 -310 134t-53 353l119 559h220l-120 -567q-32 -152 16 -245t158 -93q122 0 218 100 t130 263l115 542h221z" />
<glyph unicode="&#xfc;" horiz-adv-x="1236" d="M515 1227l66 309h407l-66 -309h-407zM1153 1015l-113 -532q-50 -231 -215 -372.5t-386 -141.5q-210 0 -310 134t-53 353l119 559h220l-120 -567q-32 -152 16 -245t158 -93q122 0 218 100t130 263l115 542h221z" />
<glyph unicode="&#xfd;" horiz-adv-x="1157" d="M586 1148l-99 126l333 280l104 -135zM1172 1015l-735 -1318q-73 -129 -190 -191.5t-257 -62.5q-70 0 -148 16l68 150q61 -11 102 -11q79 0 137.5 32t102.5 115l126 235q-66 8 -113 64.5t-58 138.5l-102 832h220l81 -797q4 -37 25.5 -59t51.5 -22l469 878h220z" />
<glyph unicode="&#xfe;" horiz-adv-x="1224" d="M573 1536l-113 -530q86 37 176 37q240 0 364.5 -150.5t75.5 -380.5q-52 -244 -240.5 -393.5t-435.5 -149.5q-63 0 -155 27l-107 -504h-218l434 2044h219zM602 903q-88 0 -174 -47l-151 -712q64 -34 152 -34q149 0 267.5 112.5t156.5 288.5q37 174 -35.5 283t-215.5 109z " />
<glyph unicode="&#xff;" horiz-adv-x="1157" d="M481 1227l65 309h407l-66 -309h-406zM1172 1015l-735 -1318q-73 -129 -190 -191.5t-257 -62.5q-70 0 -148 16l68 150q61 -11 102 -11q79 0 137.5 32t102.5 115l126 235q-66 8 -113 65t-58 138l-102 832h220l81 -797q4 -37 25.5 -59t51.5 -22l469 878h220z" />
<glyph unicode="&#x152;" horiz-adv-x="1906" d="M1957 1357h-682q-18 0 -37 -35.5t-30 -93.5l-75 -352h681l-31 -148h-679l-123 -580h740l-31 -148h-1017q-334 0 -491.5 202.5t-83.5 549.5q48 228 175.5 399t313.5 262.5t406 91.5h996zM1052 1357h-91q-152 0 -281.5 -70t-224 -208t-134.5 -327q-61 -286 45.5 -444.5 t338.5 -158.5h65l224 1053q18 84 58 155z" />
<glyph unicode="&#x153;" horiz-adv-x="2113" d="M715 1049q140 0 239.5 -62.5t132.5 -170.5q91 115 206 172.5t286 57.5q220 0 337.5 -103t81.5 -270q-35 -166 -174.5 -251.5t-372.5 -85.5h-284q11 -104 68 -163t150 -59q174 0 356 54l5 -145q-208 -54 -403 -54q-140 0 -239 64t-141 179q-87 -109 -231 -176t-284 -67 q-224 0 -338.5 150t-63.5 390q52 242 236 391t433 149zM687 906q-150 0 -264.5 -109t-152.5 -288t29.5 -289t217.5 -110q148 0 262.5 110t152.5 289t-29 288t-216 109zM1549 900q-134 0 -232.5 -100t-135.5 -271q-8 -37 -10 -71h280q117 0 202.5 60.5t104.5 150.5 q22 103 -37 167t-172 64z" />
<glyph unicode="&#x178;" horiz-adv-x="1265" d="M635 1717l66 309h407l-66 -309h-407zM1381 1505l-671 -908l-127 -597h-221l127 597l-285 908h227l205 -719h7l512 719h226z" />
<glyph unicode="&#x2c6;" horiz-adv-x="696" d="M621 1157l-126 210q-6 8 -15 8q-8 0 -18 -8l-215 -210l-100 106l240 239q53 51 131 51q35 0 65 -14t44 -37l139 -239z" />
<glyph unicode="&#x2dc;" horiz-adv-x="788" d="M750 1472h158q-26 -119 -107 -192.5t-188 -73.5q-39 0 -67 10.5t-41.5 26t-25.5 34t-19.5 34t-22 26t-35.5 10.5q-41 0 -71 -38.5t-44 -103.5h-159q26 123 106 198.5t183 75.5q47 0 79 -14.5t47.5 -35.5t26.5 -41.5t25 -35t34 -14.5q44 0 76 36.5t45 97.5z" />
<glyph unicode="&#x2000;" horiz-adv-x="1050" />
<glyph unicode="&#x2001;" horiz-adv-x="2101" />
<glyph unicode="&#x2002;" horiz-adv-x="1050" />
<glyph unicode="&#x2003;" horiz-adv-x="2101" />
<glyph unicode="&#x2004;" horiz-adv-x="700" />
<glyph unicode="&#x2005;" horiz-adv-x="525" />
<glyph unicode="&#x2006;" horiz-adv-x="350" />
<glyph unicode="&#x2007;" horiz-adv-x="350" />
<glyph unicode="&#x2008;" horiz-adv-x="262" />
<glyph unicode="&#x2009;" horiz-adv-x="420" />
<glyph unicode="&#x200a;" horiz-adv-x="116" />
<glyph unicode="&#x2010;" horiz-adv-x="616" d="M508 507h-503l31 146h503z" />
<glyph unicode="&#x2011;" horiz-adv-x="616" d="M508 507h-503l31 146h503z" />
<glyph unicode="&#x2012;" horiz-adv-x="616" d="M508 507h-503l31 146h503z" />
<glyph unicode="&#x2013;" horiz-adv-x="567" d="M484 507h-504l31 146h504z" />
<glyph unicode="&#x2014;" horiz-adv-x="1222" d="M1139 507h-1159l31 146h1159z" />
<glyph unicode="&#x2018;" horiz-adv-x="419" d="M539 1536l66 -309h-56q20 -95 69 -153t108 -58l22 -105q-134 0 -234.5 87t-130.5 229l-65 309h221z" />
<glyph unicode="&#x2019;" horiz-adv-x="411" d="M329 1536l-65 -309q-30 -142 -130.5 -229t-234.5 -87l22 105q59 0 108 58t69 153h-56l66 309h221z" />
<glyph unicode="&#x201a;" horiz-adv-x="428" d="M44 309l-66 -309q-30 -142 -130.5 -229t-234.5 -87l22 106q59 0 108 58t69 152h-56l66 309h222z" />
<glyph unicode="&#x201c;" horiz-adv-x="796" d="M308 911l65 309q30 142 130.5 229t234.5 87l-22 -105q-59 0 -108 -58t-69 -153h56l-66 -309h-221zM693 911l66 309q30 142 130.5 229t234.5 87l-23 -105q-59 0 -107.5 -58t-68.5 -153h55l-65 -309h-222z" />
<glyph unicode="&#x201d;" horiz-adv-x="808" d="M702 1536l-65 -309q-30 -142 -130.5 -229t-234.5 -87l22 105q59 0 108 58t69 153h-56l66 309h221zM304 1536l-65 -309q-30 -142 -130.5 -229t-234.5 -87l22 105q59 0 108 58t69 153h-56l66 309h221z" />
<glyph unicode="&#x201e;" horiz-adv-x="411" d="M44 309l-66 -309q-30 -142 -130.5 -229t-234.5 -87l22 106q59 0 108 58t69 152h-56l66 309h222z" />
<glyph unicode="&#x2022;" horiz-adv-x="718" d="M385 877q118 0 177 -61t38 -161t-106 -160.5t-203 -60.5t-176.5 60.5t-37.5 160.5t105.5 161t202.5 61z" />
<glyph unicode="&#x2026;" horiz-adv-x="458" d="M24 309l-66 -309h-221l66 309h221z" />
<glyph unicode="&#x202f;" horiz-adv-x="420" />
<glyph unicode="&#x2039;" horiz-adv-x="751" d="M594 285l-174 -149l-391 485l597 484l111 -149l-400 -335z" />
<glyph unicode="&#x203a;" horiz-adv-x="714" d="M100 956l153 130l376 -465l-574 -466l-98 130l402 336z" />
<glyph unicode="&#x205f;" horiz-adv-x="525" />
<glyph unicode="&#x20ac;" horiz-adv-x="1427" d="M1044 1386q-200 0 -373 -136t-257 -364h556l-31 -146l-27 -128h-555q-12 -225 99 -359.5t309 -134.5q192 0 359 116l82 -130q-208 -135 -472 -135q-295 0 -457 176t-142 467h-92l31 146l27 128h91q103 294 344.5 471.5t538.5 177.5q252 0 411 -120l-135 -135 q-125 106 -307 106z" />
<glyph unicode="&#x2122;" horiz-adv-x="1949" d="M233 1389l25 116h649l-25 -116h-235l-195 -918h-180l195 918h-234zM1614 471l99 842q-36 -15 -65 -82l-319 -695h-160l-24 695q0 72 -29 82l-260 -842h-177l317 1034h94q83 0 137 -69t50 -180l11 -528h4l234 528q46 112 127.5 180.5t166.5 68.5h94l-122 -1034h-178z" />
<glyph unicode="&#x25fc;" horiz-adv-x="1013" d="M0 1014h1014v-1014h-1014v1014z" />
<glyph unicode="&#xfb03;" horiz-adv-x="1794" d="M1061 1015h162l-31 -148h-162l-222 -1045q-32 -148 -162.5 -239t-311.5 -91l30 139q84 0 145.5 47t77.5 122l227 1067h-77h-308l-222 -1045q-32 -148 -162.5 -239t-311.5 -91l30 139q84 0 145.5 47t77.5 122l227 1067h-107l30 148h109l40 191q32 148 163.5 239t318.5 91 l-29 -139q-90 0 -153 -47t-79 -122l-45 -213h276h109l40 191q32 148 163.5 239t318.5 91l-30 -139q-90 0 -152.5 -47t-78.5 -122zM1775 1536l-66 -309h-221l65 309h222zM1445 1015h218l-216 -1015h-218z" />
<glyph unicode="&#xfb04;" horiz-adv-x="1794" d="M1773 1536l-326 -1536h-218l327 1536h217zM1061 1015h162l-31 -148h-162l-222 -1045q-32 -148 -162.5 -239t-311.5 -91l30 139q84 0 145.5 47t77.5 122l227 1067h-57h-328l-222 -1045q-32 -148 -162.5 -239t-311.5 -91l30 139q84 0 145.5 47t77.5 122l227 1067h-107 l30 148h109l40 191q32 148 163.5 239t318.5 91l-29 -139q-90 0 -153 -47t-79 -122l-45 -213h276h109l40 191q32 148 163.5 239t318.5 91l-30 -139q-90 0 -152.5 -47t-78.5 -122z" />
</font>
</defs>
</svg>
